<svg width="543" height="451" viewBox="0 0 543 451" fill="none" xmlns="http://www.w3.org/2000/svg">
<g opacity="0.5">
<path d="M446.096 113.121L445.225 112.599L384.673 147.1C383.105 147.971 382.146 149.104 381.885 150.237C381.624 151.369 382.234 152.415 383.54 153.112L424.141 175.939C425.186 176.549 425.622 177.333 425.448 178.291C425.273 179.249 424.489 180.121 423.182 180.905L380.23 205.561C377.529 207.13 373.608 207.304 371.517 206.171L357.49 198.33C354.876 196.849 350.084 197.197 346.774 199.027L315.67 216.8C314.102 217.672 313.143 218.804 312.882 219.937C312.62 221.07 313.23 222.115 314.537 222.812L357.316 246.859C358.361 247.468 358.797 248.253 358.623 249.211C358.448 250.169 357.664 251.041 356.357 251.825L313.753 276.133C311.052 277.701 307.132 277.875 305.041 276.743L289.532 268.03C288.225 267.333 286.483 266.985 284.392 267.159C282.388 267.333 280.384 267.856 278.816 268.727L229.764 296.694C226.454 298.524 225.931 301.312 228.632 302.793L239.261 308.805C241.439 310.024 241.004 312.203 238.303 313.771L200.665 335.291L201.536 335.813L239.174 314.294C242.485 312.464 243.007 309.676 240.307 308.195L229.677 302.183C227.499 300.963 227.935 298.785 230.636 297.217L279.687 269.25C280.994 268.553 282.562 268.03 284.218 267.943C285.873 267.856 287.354 268.117 288.4 268.64L303.908 277.352C305.215 278.049 306.957 278.398 309.048 278.224C311.052 278.049 313.056 277.527 314.624 276.655L357.229 252.347C360.539 250.518 361.062 247.73 358.361 246.249L315.583 222.115C314.537 221.505 314.102 220.721 314.276 219.763C314.45 218.804 315.234 217.933 316.541 217.149L347.645 199.375C350.346 197.807 354.266 197.633 356.357 198.765L370.384 206.607C372.998 208.088 377.79 207.739 381.101 205.91L424.054 181.428C425.622 180.556 426.58 179.424 426.842 178.291C427.103 177.158 426.493 176.113 425.186 175.416L384.586 152.589C383.54 151.979 383.105 151.195 383.279 150.237C383.453 149.278 384.237 148.407 385.544 147.623L446.096 113.121Z" fill="#31475E"/>
<path d="M409.066 141.957C409.327 140.824 408.717 139.778 407.41 139.081L369.162 117.562L368.117 118.171L406.365 139.691C407.41 140.301 407.846 141.085 407.672 142.044C407.497 143.002 406.713 143.873 405.406 144.657L367.071 166.526C364.37 168.094 360.45 168.268 358.359 167.136L337.362 155.287C334.748 153.806 329.956 154.154 326.645 155.984L291.272 176.11C288.571 177.678 284.651 177.852 282.56 176.72L263.392 165.916C260.778 164.435 255.987 164.783 252.676 166.613L222.792 183.69C221.224 184.561 220.265 185.693 220.004 186.826C219.743 187.959 220.352 189.004 221.659 189.701L242.395 201.376C244.573 202.596 244.138 204.774 241.437 206.342L211.291 223.593C209.984 224.29 208.416 224.813 206.761 224.9C205.105 224.987 203.624 224.726 202.579 224.203L186.461 215.142C183.847 213.661 179.055 214.009 175.744 215.839L135.492 238.84C134.186 239.537 132.617 240.06 130.962 240.147C129.307 240.234 127.825 239.972 126.78 239.45L101.688 225.335L100.642 225.945L125.734 240.06C127.041 240.757 128.784 241.105 130.875 240.931C132.879 240.757 134.883 240.234 136.451 239.363L176.703 216.362C178.01 215.665 179.578 215.142 181.233 215.055C182.889 214.968 184.37 215.229 185.415 215.752L201.533 224.813C204.147 226.294 208.939 225.945 212.25 224.116L242.395 206.865C245.706 205.035 246.229 202.247 243.528 200.766L222.792 189.091C221.746 188.481 221.311 187.697 221.485 186.739C221.659 185.781 222.443 184.909 223.75 184.125L253.547 167.136C256.248 165.568 260.169 165.393 262.26 166.526L281.427 177.329C284.041 178.811 288.833 178.462 292.144 176.632L327.516 156.506C330.217 154.938 334.138 154.764 336.229 155.897L357.226 167.746C359.84 169.227 364.632 168.878 367.943 167.049L406.278 145.18C407.846 144.222 408.804 143.089 409.066 141.957Z" fill="#31475E"/>
<path d="M304.345 318.646L272.283 300.612C271.238 300.002 270.802 299.218 270.976 298.259C271.15 297.301 271.935 296.43 273.241 295.645L288.488 286.933C291.799 285.103 292.322 282.315 289.621 280.834L247.801 257.31C246.494 256.613 244.751 256.265 242.66 256.439C240.657 256.613 238.653 257.136 237.084 258.007L210.598 273.167C209.292 273.864 207.723 274.387 206.068 274.474C204.413 274.561 202.931 274.3 201.886 273.777L185.768 264.716C183.59 263.496 184.025 261.318 186.726 259.75L205.894 248.859C209.204 247.03 209.727 244.242 207.026 242.76L157.801 215.055C155.622 213.835 156.058 211.657 158.759 210.088L178.101 199.024C181.411 197.194 181.934 194.406 179.233 192.925L116.242 157.465L115.196 158.075L178.188 193.535C180.366 194.754 179.93 196.933 177.229 198.501L157.888 209.566C154.577 211.395 154.054 214.183 156.755 215.664L205.981 243.37C208.159 244.59 207.723 246.768 205.022 248.336L185.855 259.227C182.544 261.057 182.021 263.845 184.722 265.326L200.84 274.387C202.147 275.084 203.89 275.432 205.981 275.258C207.985 275.084 209.989 274.561 211.557 273.69L238.043 258.53C239.35 257.833 240.918 257.31 242.573 257.223C244.229 257.136 245.71 257.397 246.755 257.92L288.575 281.444C290.754 282.664 290.318 284.842 287.617 286.41L272.37 295.123C270.802 295.994 269.844 297.127 269.582 298.259C269.321 299.392 269.931 300.437 271.238 301.134L303.3 319.169L304.345 318.646Z" fill="#31475E"/>
<path d="M465.003 203.209L464.131 202.687L351.391 266.985C348.69 268.553 344.77 268.727 342.679 267.595L279.339 231.961C278.032 231.264 276.289 230.915 274.198 231.089C272.194 231.264 270.191 231.786 268.622 232.658L248.148 244.332C244.837 246.162 244.314 248.95 247.015 250.431L257.383 256.269C259.561 257.488 259.126 259.666 256.425 261.235L236.735 272.474C235.428 273.171 233.859 273.694 232.204 273.781C230.549 273.868 229.067 273.606 228.022 273.084L213.733 265.068C212.427 264.371 210.684 264.023 208.593 264.197C206.589 264.371 204.585 264.894 203.017 265.765L86.1821 332.416L87.0534 332.939L203.888 266.288C205.195 265.591 206.763 265.068 208.419 264.981C210.074 264.894 211.555 265.155 212.601 265.678L226.889 273.694C228.196 274.391 229.939 274.739 232.03 274.565C234.034 274.391 236.038 273.868 237.606 272.997L257.296 261.757C260.607 259.928 261.13 257.14 258.429 255.659L248.061 249.821C245.883 248.602 246.318 246.423 249.019 244.855L269.494 233.18C270.8 232.483 272.369 231.961 274.024 231.873C275.679 231.786 277.161 232.048 278.206 232.57L341.546 268.205C344.16 269.686 348.952 269.337 352.263 267.508L465.003 203.209Z" fill="#31475E"/>
<path d="M472.849 168.793L471.978 168.271L338.676 244.331C335.976 245.899 332.055 246.073 329.964 244.941L281.784 217.845C279.606 216.625 280.041 214.447 282.742 212.879L295.985 205.299C297.553 204.428 298.512 203.295 298.773 202.162C299.035 201.03 298.425 199.984 297.118 199.287L284.049 191.969C281.435 190.487 276.643 190.836 273.333 192.666L263.575 198.242C262.268 198.939 260.699 199.461 259.044 199.548C257.389 199.636 255.908 199.374 254.862 198.851L217.311 177.68C215.133 176.46 215.569 174.282 218.269 172.714L224.02 169.403C225.588 168.532 226.546 167.399 226.808 166.267C227.069 165.134 226.459 164.089 225.152 163.392L162.945 128.367L161.899 128.977L224.107 164.001C226.285 165.221 225.849 167.399 223.148 168.968L217.398 172.278C215.83 173.15 214.872 174.282 214.61 175.415C214.349 176.547 214.959 177.593 216.266 178.29L253.817 199.461C256.43 200.942 261.222 200.594 264.533 198.764L274.291 193.188C275.598 192.491 277.166 191.969 278.821 191.881C280.477 191.794 281.958 192.056 283.003 192.578L296.072 199.897C297.118 200.507 297.553 201.291 297.379 202.249C297.205 203.208 296.421 204.079 295.114 204.863L281.871 212.443C278.56 214.273 278.037 217.061 280.738 218.542L328.918 245.638C331.532 247.119 336.324 246.77 339.635 244.941L472.849 168.793Z" fill="#31475E"/>
<path d="M333.967 221.937C334.142 220.804 333.619 219.759 332.312 219.062L301.818 201.898C300.773 201.288 300.337 200.504 300.511 199.546C300.686 198.587 301.47 197.716 302.777 196.932L323.687 184.996C325.255 184.124 326.213 182.992 326.475 181.859C326.736 180.727 326.126 179.681 324.819 178.984L295.197 162.343C294.151 161.733 293.716 160.949 293.89 159.991C294.064 159.032 294.848 158.161 296.155 157.377L326.3 140.126C327.869 139.255 328.827 138.122 329.088 136.99C329.35 135.857 328.74 134.812 327.433 134.115L295.632 116.254L294.587 116.864L326.475 134.637C327.52 135.247 327.956 136.031 327.782 136.99C327.607 137.948 326.823 138.819 325.516 139.603L295.371 156.767C293.803 157.638 292.844 158.771 292.583 159.904C292.322 161.036 292.931 162.082 294.238 162.779L323.861 179.42C324.906 180.03 325.342 180.814 325.168 181.772C324.994 182.73 324.209 183.602 322.903 184.386L301.993 196.322C300.424 197.193 299.466 198.326 299.205 199.458C298.943 200.591 299.553 201.637 300.86 202.334L331.354 219.497C333.532 220.717 333.096 222.895 330.395 224.463L281.605 252.256C278.904 253.825 274.984 253.999 272.893 252.866L235.864 232.218C234.558 231.521 232.815 231.172 230.724 231.346C228.72 231.521 226.716 232.043 225.148 232.915L75.2056 318.559L76.0768 319.081L226.019 233.437C227.326 232.74 228.894 232.218 230.55 232.13C232.205 232.043 233.686 232.305 234.732 232.827L271.673 253.65C274.287 255.132 279.079 254.783 282.389 252.953L331.179 225.16C332.835 224.202 333.706 223.069 333.967 221.937Z" fill="#31475E"/>
<path d="M446.096 113.121L445.225 112.599L384.673 147.1C383.105 147.971 382.146 149.104 381.885 150.237C381.624 151.369 382.234 152.415 383.54 153.112L424.141 175.939C425.186 176.549 425.622 177.333 425.448 178.291C425.273 179.249 424.489 180.121 423.182 180.905L380.23 205.561C377.529 207.13 373.608 207.304 371.517 206.171L357.49 198.33C354.876 196.849 350.084 197.197 346.774 199.027L315.67 216.8C314.102 217.672 313.143 218.804 312.882 219.937C312.62 221.07 313.23 222.115 314.537 222.812L357.316 246.859C358.361 247.468 358.797 248.253 358.623 249.211C358.448 250.169 357.664 251.041 356.357 251.825L313.753 276.133C311.052 277.701 307.132 277.875 305.041 276.743L289.532 268.03C288.225 267.333 286.483 266.985 284.392 267.159C282.388 267.333 280.384 267.856 278.816 268.727L229.764 296.694C226.454 298.524 225.931 301.312 228.632 302.793L239.261 308.805C241.439 310.024 241.004 312.203 238.303 313.771L200.665 335.291L201.536 335.813L239.174 314.294C242.485 312.464 243.007 309.676 240.307 308.195L229.677 302.183C227.499 300.963 227.935 298.785 230.636 297.217L279.687 269.25C280.994 268.553 282.562 268.03 284.218 267.943C285.873 267.856 287.354 268.117 288.4 268.64L303.908 277.352C305.215 278.049 306.957 278.398 309.048 278.224C311.052 278.049 313.056 277.527 314.624 276.655L357.229 252.347C360.539 250.518 361.062 247.73 358.361 246.249L315.583 222.115C314.537 221.505 314.102 220.721 314.276 219.763C314.45 218.804 315.234 217.933 316.541 217.149L347.645 199.375C350.346 197.807 354.266 197.633 356.357 198.765L370.384 206.607C372.998 208.088 377.79 207.739 381.101 205.91L424.054 181.428C425.622 180.556 426.58 179.424 426.842 178.291C427.103 177.158 426.493 176.113 425.186 175.416L384.586 152.589C383.54 151.979 383.105 151.195 383.279 150.237C383.453 149.278 384.237 148.407 385.544 147.623L446.096 113.121Z" fill="#31475E"/>
<path d="M409.066 141.957C409.327 140.824 408.717 139.778 407.41 139.081L369.162 117.562L368.117 118.171L406.365 139.691C407.41 140.301 407.846 141.085 407.672 142.044C407.497 143.002 406.713 143.873 405.406 144.657L367.071 166.526C364.37 168.094 360.45 168.268 358.359 167.136L337.362 155.287C334.748 153.806 329.956 154.154 326.645 155.984L291.272 176.11C288.571 177.678 284.651 177.852 282.56 176.72L263.392 165.916C260.778 164.435 255.987 164.783 252.676 166.613L222.792 183.69C221.224 184.561 220.265 185.693 220.004 186.826C219.743 187.959 220.352 189.004 221.659 189.701L242.395 201.376C244.573 202.596 244.138 204.774 241.437 206.342L211.291 223.593C209.984 224.29 208.416 224.813 206.761 224.9C205.105 224.987 203.624 224.726 202.579 224.203L186.461 215.142C183.847 213.661 179.055 214.009 175.744 215.839L135.492 238.84C134.186 239.537 132.617 240.06 130.962 240.147C129.307 240.234 127.825 239.972 126.78 239.45L101.688 225.335L100.642 225.945L125.734 240.06C127.041 240.757 128.784 241.105 130.875 240.931C132.879 240.757 134.883 240.234 136.451 239.363L176.703 216.362C178.01 215.665 179.578 215.142 181.233 215.055C182.889 214.968 184.37 215.229 185.415 215.752L201.533 224.813C204.147 226.294 208.939 225.945 212.25 224.116L242.395 206.865C245.706 205.035 246.229 202.247 243.528 200.766L222.792 189.091C221.746 188.481 221.311 187.697 221.485 186.739C221.659 185.781 222.443 184.909 223.75 184.125L253.547 167.136C256.248 165.568 260.169 165.393 262.26 166.526L281.427 177.329C284.041 178.811 288.833 178.462 292.144 176.632L327.516 156.506C330.217 154.938 334.138 154.764 336.229 155.897L357.226 167.746C359.84 169.227 364.632 168.878 367.943 167.049L406.278 145.18C407.846 144.222 408.804 143.089 409.066 141.957Z" fill="#31475E"/>
<path d="M303.91 318.385L272.283 300.612C271.238 300.002 270.802 299.218 270.976 298.259C271.15 297.301 271.935 296.43 273.241 295.645L288.488 286.933C291.799 285.103 292.322 282.315 289.621 280.834L247.801 257.31C246.494 256.613 244.751 256.265 242.66 256.439C240.657 256.613 238.653 257.136 237.084 258.007L210.598 273.167C209.292 273.864 207.723 274.387 206.068 274.474C204.413 274.561 202.931 274.3 201.886 273.777L185.768 264.716C183.59 263.496 184.025 261.318 186.726 259.75L205.894 248.859C209.204 247.03 209.727 244.242 207.026 242.76L157.801 215.055C155.622 213.835 156.058 211.657 158.759 210.088L178.101 199.024C181.411 197.194 181.934 194.406 179.233 192.925L116.242 157.465L115.196 158.075L178.188 193.535C180.366 194.754 179.93 196.933 177.229 198.501L157.888 209.566C154.577 211.395 154.054 214.183 156.755 215.664L205.981 243.37C208.159 244.59 207.723 246.768 205.022 248.336L185.855 259.227C182.544 261.057 182.021 263.845 184.722 265.326L200.84 274.387C202.147 275.084 203.89 275.432 205.981 275.258C207.985 275.084 209.989 274.561 211.557 273.69L238.043 258.53C239.35 257.833 240.918 257.31 242.573 257.223C244.229 257.136 245.71 257.397 246.755 257.92L288.575 281.444C290.754 282.664 290.318 284.842 287.617 286.41L272.37 295.123C270.802 295.994 269.844 297.127 269.582 298.259C269.321 299.392 269.931 300.437 271.238 301.134L302.864 318.908L303.91 318.385Z" fill="#31475E"/>
<path d="M465.004 203.209L464.133 202.687L351.393 266.985C348.692 268.553 344.772 268.727 342.681 267.595L279.341 231.961C278.034 231.264 276.291 230.915 274.2 231.089C272.196 231.264 270.192 231.786 268.624 232.658L248.15 244.332C244.839 246.162 244.316 248.95 247.017 250.431L257.385 256.269C259.563 257.488 259.127 259.666 256.427 261.235L236.736 272.474C235.429 273.171 233.861 273.694 232.206 273.781C230.55 273.868 229.069 273.606 228.024 273.084L213.735 265.068C212.428 264.371 210.686 264.023 208.595 264.197C206.591 264.371 204.587 264.894 203.019 265.765L83.7444 333.81L84.6156 334.333L203.89 266.288C205.197 265.591 206.765 265.068 208.421 264.981C210.076 264.894 211.557 265.155 212.603 265.678L226.891 273.694C228.198 274.391 229.941 274.739 232.032 274.565C234.035 274.391 236.039 273.868 237.608 272.997L257.298 261.757C260.609 259.928 261.131 257.14 258.43 255.659L248.063 249.821C245.884 248.602 246.32 246.423 249.021 244.855L269.495 233.18C270.802 232.483 272.37 231.961 274.026 231.873C275.681 231.786 277.162 232.048 278.208 232.57L341.548 268.205C344.162 269.686 348.954 269.337 352.264 267.508L465.004 203.209Z" fill="#31475E"/>
<path d="M472.849 168.793L471.978 168.271L338.676 244.331C335.976 245.899 332.055 246.073 329.964 244.941L281.784 217.845C279.606 216.625 280.041 214.447 282.742 212.879L295.985 205.299C297.553 204.428 298.512 203.295 298.773 202.162C299.035 201.03 298.425 199.984 297.118 199.287L284.049 191.969C281.435 190.487 276.643 190.836 273.333 192.666L263.575 198.242C262.268 198.939 260.699 199.461 259.044 199.548C257.389 199.636 255.908 199.374 254.862 198.851L217.311 177.68C215.133 176.46 215.569 174.282 218.269 172.714L224.02 169.403C225.588 168.532 226.546 167.399 226.808 166.267C227.069 165.134 226.459 164.089 225.152 163.392L162.945 128.367L161.899 128.977L224.107 164.001C226.285 165.221 225.849 167.399 223.148 168.968L217.398 172.278C215.83 173.15 214.872 174.282 214.61 175.415C214.349 176.547 214.959 177.593 216.266 178.29L253.817 199.461C256.43 200.942 261.222 200.594 264.533 198.764L274.291 193.188C275.598 192.491 277.166 191.969 278.821 191.881C280.477 191.794 281.958 192.056 283.003 192.578L296.072 199.897C297.118 200.507 297.553 201.291 297.379 202.249C297.205 203.208 296.421 204.079 295.114 204.863L281.871 212.443C278.56 214.273 278.037 217.061 280.738 218.542L328.918 245.638C331.532 247.119 336.324 246.77 339.635 244.941L472.849 168.793Z" fill="#31475E"/>
<path d="M333.967 221.937C334.142 220.804 333.619 219.759 332.312 219.062L301.818 201.898C300.773 201.288 300.337 200.504 300.511 199.546C300.686 198.587 301.47 197.716 302.777 196.932L323.687 184.996C325.255 184.124 326.213 182.992 326.475 181.859C326.736 180.727 326.126 179.681 324.819 178.984L295.197 162.343C294.151 161.733 293.716 160.949 293.89 159.991C294.064 159.032 294.848 158.161 296.155 157.377L326.3 140.126C327.869 139.255 328.827 138.122 329.088 136.99C329.35 135.857 328.74 134.812 327.433 134.115L295.632 116.254L294.587 116.864L326.475 134.637C327.52 135.247 327.956 136.031 327.782 136.99C327.607 137.948 326.823 138.819 325.516 139.603L295.371 156.767C293.803 157.638 292.844 158.771 292.583 159.904C292.322 161.036 292.931 162.082 294.238 162.779L323.861 179.42C324.906 180.03 325.342 180.814 325.168 181.772C324.994 182.73 324.209 183.602 322.903 184.386L301.993 196.322C300.424 197.193 299.466 198.326 299.205 199.458C298.943 200.591 299.553 201.637 300.86 202.334L331.354 219.497C333.532 220.717 333.096 222.895 330.395 224.463L281.605 252.256C278.904 253.825 274.984 253.999 272.893 252.866L235.864 232.218C234.558 231.521 232.815 231.172 230.724 231.346C228.72 231.521 226.716 232.043 225.148 232.915L75.2056 318.559L76.0768 319.081L226.019 233.437C227.326 232.74 228.894 232.218 230.55 232.13C232.205 232.043 233.686 232.305 234.732 232.827L271.673 253.65C274.287 255.132 279.079 254.783 282.389 252.953L331.179 225.16C332.835 224.202 333.706 223.069 333.967 221.937Z" fill="#31475E"/>
<g opacity="0.25">
<path d="M60.2198 181.513L59 182.21L92.7175 201.203C95.6797 202.858 100.994 202.51 104.654 200.419L119.378 191.968C120.859 191.184 122.601 190.661 124.431 190.487C126.261 190.399 127.916 190.661 129.049 191.271L172.96 216.014C174.092 216.624 174.615 217.583 174.441 218.628C174.267 219.674 173.308 220.719 171.914 221.503L150.481 233.875C148.739 234.92 147.606 236.14 147.345 237.447C147.084 238.754 147.781 239.887 149.175 240.671L187.248 262.104C190.211 263.759 195.525 263.41 199.184 261.319L258.517 227.428C259.998 226.644 261.74 226.121 263.57 225.947C265.4 225.859 267.055 226.121 268.188 226.731L296.068 242.413C297.2 243.023 297.723 243.981 297.549 245.027C297.375 246.072 296.416 247.118 295.022 247.902L275.593 258.967C271.934 261.058 271.324 264.107 274.286 265.763L312.709 287.37C315.671 289.025 320.986 288.677 324.645 286.586L381.015 254.437C383.977 252.694 388.333 252.433 390.773 253.827L444.965 284.32L446.184 283.623L391.993 253.13C389.03 251.474 383.716 251.823 380.056 253.914L323.686 286.063C320.724 287.805 316.368 288.067 313.928 286.673L275.506 265.066C273.154 263.759 273.589 261.232 276.552 259.577L295.981 248.512C297.723 247.466 298.856 246.247 299.117 244.94C299.378 243.633 298.681 242.5 297.287 241.716L269.407 226.034C268.013 225.25 266.01 224.901 263.744 224.988C261.479 225.162 259.301 225.772 257.558 226.731L198.226 260.622C195.264 262.365 190.908 262.626 188.468 261.232L150.394 239.799C148.042 238.493 148.478 235.966 151.44 234.311L172.96 222.026C174.702 220.98 175.835 219.761 176.096 218.454C176.358 217.147 175.661 216.014 174.267 215.23L130.356 190.487C128.962 189.702 126.958 189.354 124.692 189.441C122.427 189.615 120.249 190.225 118.507 191.184L103.782 199.635C100.82 201.377 96.4638 201.639 94.0243 200.245L60.2198 181.513Z" fill="#31475E"/>
<path d="M305.735 88.8105L270.973 108.675C267.313 110.766 266.703 113.815 269.666 115.471L305.735 135.771C308.088 137.078 307.652 139.605 304.69 141.26L282.299 154.067C278.64 156.158 278.03 159.208 280.992 160.863L308.001 176.11C309.395 176.894 311.399 177.243 313.664 177.156C315.929 176.981 318.107 176.371 319.85 175.326L348.601 158.946C349.995 158.162 351.825 157.639 353.654 157.465C355.484 157.378 357.139 157.639 358.272 158.249L384.932 173.235C387.285 174.542 386.849 177.068 383.887 178.724L357.226 193.884C353.567 195.975 352.957 199.024 355.92 200.679L387.546 218.453C389.898 219.76 389.463 222.286 386.501 223.942L357.314 240.583C353.654 242.674 353.044 245.723 356.007 247.378L390.334 266.72C393.296 268.376 398.611 268.027 402.27 265.936L455.329 235.704L454.371 235.181L401.312 265.413C398.35 267.156 393.993 267.417 391.554 266.023L357.226 246.681C354.874 245.375 355.31 242.848 358.272 241.193L387.459 224.552C391.118 222.461 391.728 219.411 388.766 217.756L357.139 199.982C354.787 198.675 355.223 196.149 358.185 194.493L384.845 179.334C388.504 177.243 389.114 174.193 386.152 172.538L359.579 157.465C358.185 156.681 356.181 156.333 353.916 156.42C351.65 156.594 349.472 157.204 347.73 158.249L318.978 174.629C317.584 175.413 315.755 175.936 313.925 176.11C312.096 176.197 310.44 175.936 309.308 175.326L282.299 160.079C279.946 158.772 280.382 156.245 283.344 154.59L305.735 141.783C309.395 139.692 310.005 136.642 307.042 134.987L270.973 114.687C268.62 113.38 269.056 110.853 272.018 109.198L306.781 89.3333L305.735 88.8105Z" fill="#31475E"/>
<path d="M95.3296 106.933L94.1099 107.63L198.137 166.178C199.27 166.788 199.793 167.746 199.618 168.792C199.444 169.837 198.486 170.883 197.092 171.667L177.227 182.993C173.568 185.084 172.958 188.133 175.92 189.789L193.52 199.721C196.482 201.376 201.797 201.028 205.456 198.937L219.919 190.747C222.881 189.005 227.237 188.743 229.677 190.137L247.973 200.418C249.106 201.028 249.628 201.986 249.454 203.032C249.28 204.077 248.322 205.123 246.928 205.907L159.018 256.091C157.276 257.136 156.143 258.356 155.882 259.663C155.62 260.97 156.317 262.103 157.711 262.887L258.602 319.692L259.822 318.995L158.931 262.19C157.798 261.58 157.276 260.622 157.45 259.576C157.624 258.53 158.583 257.485 159.977 256.701L247.886 206.43C251.545 204.339 252.155 201.289 249.193 199.634L230.896 189.353C227.934 187.698 222.62 188.046 218.96 190.137L204.498 198.327C201.535 200.069 197.179 200.331 194.739 198.937L177.14 189.005C174.788 187.698 175.223 185.171 178.186 183.516L198.05 172.189C201.71 170.098 202.319 167.049 199.357 165.394L95.3296 106.933Z" fill="#31475E"/>
<path d="M485.3 103.971L398.959 153.284C397.478 154.068 395.735 154.59 393.905 154.765C392.076 154.852 390.42 154.59 389.288 153.981L384.147 151.105C382.753 150.321 380.75 149.973 378.484 150.06C376.219 150.234 374.041 150.844 372.298 151.802L320.197 181.512C316.538 183.603 315.928 186.653 318.891 188.308L327.69 193.274C330.043 194.581 329.607 197.108 326.645 198.763L308.523 209.131C307.042 209.915 305.299 210.438 303.469 210.612C301.64 210.699 299.984 210.438 298.852 209.828L287.003 203.206C285.609 202.422 283.605 202.074 281.34 202.161C279.074 202.335 276.896 202.945 275.154 203.903L207.98 241.977C206.238 243.023 205.105 244.242 204.844 245.549C204.582 246.856 205.279 247.989 206.673 248.773L326.035 315.946L327.255 315.249L207.893 248.076C206.76 247.466 206.238 246.508 206.412 245.462C206.586 244.417 207.545 243.371 208.939 242.587L275.764 204.426C277.158 203.642 278.987 203.119 280.817 202.945C282.647 202.858 284.302 203.119 285.435 203.729L297.284 210.351C298.678 211.135 300.681 211.483 302.947 211.396C305.212 211.222 307.39 210.612 309.133 209.566L327.255 199.199C328.997 198.153 330.13 196.933 330.391 195.626C330.653 194.32 329.956 193.187 328.562 192.403L319.762 187.437C317.409 186.13 317.845 183.603 320.807 181.948L372.908 152.238C374.389 151.454 376.132 150.931 377.962 150.757C379.791 150.67 381.447 150.931 382.579 151.541L387.72 154.416C389.114 155.2 391.117 155.549 393.383 155.462C395.648 155.287 397.826 154.678 399.569 153.632L485.91 104.406L485.3 103.971Z" fill="#31475E"/>
<path d="M125.478 95.9521L124.259 96.6492L258.519 172.187C259.651 172.797 260.174 173.755 260 174.8C259.825 175.846 258.867 176.891 257.473 177.676L206.243 206.95C204.501 207.995 203.368 209.215 203.107 210.522C202.845 211.829 203.542 212.961 204.937 213.745L248.586 238.315C251.549 239.97 256.863 239.622 260.522 237.531L302.865 213.397C305.828 211.654 310.184 211.393 312.623 212.787L331.355 223.329C332.749 224.113 334.753 224.462 337.018 224.288C339.284 224.113 341.462 223.503 343.204 222.545L384.24 199.108C385.721 198.324 387.464 197.802 389.293 197.627C391.123 197.54 392.778 197.802 393.911 198.411L420.92 213.658C423.882 215.314 429.197 214.965 432.856 212.874L476.941 187.695L475.983 187.172L431.898 212.351C428.935 214.094 424.579 214.355 422.14 212.961L395.131 197.714C393.737 196.93 391.733 196.582 389.468 196.669C387.202 196.843 385.024 197.453 383.282 198.499L342.246 221.935C340.852 222.719 339.022 223.242 337.193 223.416C335.363 223.503 333.708 223.242 332.575 222.632L313.843 212.09C310.881 210.435 305.566 210.783 301.907 212.874L259.564 237.008C256.602 238.75 252.246 239.012 249.806 237.618L206.156 213.048C205.024 212.439 204.501 211.48 204.675 210.435C204.849 209.389 205.808 208.344 207.202 207.56L258.431 178.285C260.174 177.24 261.307 176.02 261.568 174.713C261.829 173.406 261.132 172.274 259.738 171.49L125.478 95.9521Z" fill="#31475E"/>
</g>
</g>
<path d="M380.435 266.388C390.522 271.981 390.522 281.64 380.435 287.233L289.656 340.616C280.074 346.209 263.935 346.209 253.848 340.616L162.565 287.233C152.478 281.64 152.478 271.981 162.565 266.388L253.344 213.005C262.926 207.412 279.065 207.412 289.152 213.005L380.435 266.388Z" fill="#FFE7DA"/>
<path d="M380.435 254.388C390.522 259.981 390.522 269.64 380.435 275.233L289.656 328.616C280.074 334.209 263.935 334.209 253.848 328.616L162.565 275.233C152.478 269.64 152.478 259.981 162.565 254.388L253.344 201.005C262.926 195.412 279.065 195.412 289.152 201.005L380.435 254.388Z" fill="#FFCFB5"/>
<path d="M380.435 242.388C390.522 247.981 390.522 257.64 380.435 263.233L289.656 316.616C280.074 322.209 263.935 322.209 253.848 316.616L162.565 263.233C152.478 257.64 152.478 247.981 162.565 242.388L253.344 189.005C262.926 183.412 279.065 183.412 289.152 189.005L380.435 242.388Z" fill="white" stroke="#FF5C00" stroke-miterlimit="10" stroke-linecap="round" stroke-linejoin="round"/>
<path d="M482.811 347.2C466.547 375.37 428.253 387.43 379.232 383.941C330.249 380.455 270.733 361.445 212.312 327.716C153.892 293.987 107.671 251.95 80.1606 211.272C52.6285 170.563 43.9263 131.37 60.1903 103.2C76.4543 75.0297 114.748 62.9693 163.769 66.4582C212.752 69.9444 272.268 88.954 330.689 122.683C389.109 156.412 435.33 198.449 462.84 239.127C490.372 279.836 499.075 319.03 482.811 347.2Z" stroke="#31475E"/>
<path d="M482.811 103.2C499.075 131.37 490.373 170.563 462.84 211.272C435.33 251.95 389.109 293.987 330.689 327.716C272.268 361.445 212.752 380.455 163.769 383.941C114.748 387.43 76.4543 375.37 60.1904 347.2C43.9264 319.03 52.6286 279.836 80.1607 239.127C107.672 198.449 153.892 156.412 212.313 122.683C270.733 88.9541 330.249 69.9444 379.232 66.4582C428.253 62.9693 466.547 75.0297 482.811 103.2Z" stroke="#31475E"/>
<circle cx="272" cy="93.8105" r="37.5" fill="white" stroke="#31475E"/>
<circle cx="81" cy="99.8105" r="37.5" fill="white" stroke="#31475E"/>
<circle cx="69" cy="344.811" r="37.5" fill="white" stroke="#31475E"/>
<circle cx="447" cy="224.811" r="37.5" fill="white" stroke="#31475E"/>
<path d="M426.002 196.416C426.002 195.005 427.009 194.401 428.217 195.106L464.98 216.367C466.188 217.073 467.195 218.786 467.195 220.196V253.851L426.002 230.071V196.416Z" fill="#FF5C00"/>
<path d="M466.792 253.045V224.529L426.505 201.253V229.769L466.792 253.045Z" fill="white"/>
<path d="M433.454 201.454C433.454 202.159 433.958 203.066 434.562 203.369C435.166 203.772 435.67 203.469 435.67 202.764C435.67 202.059 435.166 201.152 434.562 200.849C433.958 200.446 433.454 200.749 433.454 201.454Z" fill="white"/>
<path d="M438.188 204.175C438.188 204.88 438.692 205.787 439.296 206.089C439.901 206.492 440.404 206.19 440.404 205.485C440.404 204.779 439.901 203.872 439.296 203.57C438.692 203.167 438.188 203.469 438.188 204.175Z" fill="white"/>
<path d="M429.046 199.791C428.596 199.022 428.583 198.194 429.015 197.942C429.447 197.689 430.162 198.107 430.611 198.876C431.06 199.644 431.074 200.472 430.642 200.725C430.209 200.978 429.495 200.56 429.046 199.791Z" fill="white"/>
<path d="M453.098 235.512L454.105 237.225L458.436 234.706L454.105 227.249L453.098 227.854L456.421 233.597L453.098 235.512Z" fill="#31475E"/>
<path d="M444.033 217.979H442.724L449.17 236.722H450.479L444.033 217.979Z" fill="#31475E"/>
<path d="M436.983 222.414L440.307 220.499L439.3 218.786L434.969 221.305L439.3 228.762L440.307 228.157L436.983 222.414Z" fill="#31475E"/>
<circle cx="454" cy="99.8105" r="37.5" fill="white" stroke="#31475E"/>
<circle cx="360" cy="370.811" r="37.5" fill="white" stroke="#31475E"/>
<path d="M374.017 357.954L359.707 343.124L346.164 341.078C347.39 346.192 342.757 347.3 340.286 347.215C338.446 370.126 352.467 391.707 359.707 399.634C379.946 396.156 381.258 377.558 379.384 368.694C374.069 366.444 373.592 360.597 374.017 357.954Z" fill="white" stroke="#31475E" stroke-width="0.7"/>
<path d="M350.675 357.422C351.349 357.422 352.06 357.309 352.772 357.047C355.018 356.261 357.825 354.427 357.862 354.39C357.937 354.352 358.237 354.203 358.574 354.053C359.884 353.379 360.408 353.117 360.595 352.967C360.707 352.893 360.707 352.855 360.67 352.78L360.632 352.668L360.52 352.705C353.82 354.989 351.462 354.614 349.627 353.229L349.553 353.192L345.023 354.914L345.21 355.101C346.333 356.074 348.317 357.422 350.675 357.422ZM357.75 354.203C357.713 354.203 354.943 356.037 352.697 356.823C349.665 357.908 346.932 356.224 345.547 355.064L349.553 353.529C351.312 354.839 353.558 355.213 359.247 353.454C358.985 353.604 358.686 353.753 358.461 353.866C358.087 354.016 357.862 354.128 357.75 354.203Z" fill="#31475E"/>
<path d="M362.77 388.046C362.92 388.046 363.294 387.822 364.904 386.923C365.914 386.362 367 385.726 367.15 385.613C372.427 382.095 373.588 374.047 373.812 369.555C373.85 368.732 373.925 367.683 373.887 366.373V366.111L373.7 366.149L369.358 367.833V368.02C369.059 373.935 368.572 382.843 362.695 387.822L362.62 387.897L362.695 388.009C362.695 388.009 362.733 388.046 362.77 388.046ZM373.625 366.448C373.625 367.721 373.588 368.732 373.55 369.555C373.326 374.009 372.165 381.982 367 385.426C366.775 385.576 364.791 386.699 363.631 387.373C368.909 382.244 369.358 373.747 369.658 368.058V368.02L373.625 366.448Z" fill="#31475E"/>
<path d="M369.506 368.017L374.409 366.146H373.736C373.436 366.146 373.137 366.108 372.8 366.071C366.773 365.584 362.693 358.547 361.458 352.184L361.421 352.034L356.891 353.906V354.018C356.966 354.58 359.212 367.419 368.458 368.017C368.57 368.017 368.682 368.017 368.795 368.055C369.094 367.98 369.281 368.017 369.506 368.017ZM373.137 366.333L369.468 367.755C369.281 367.755 369.094 367.718 368.907 367.718C368.795 367.718 368.682 367.718 368.57 367.681C359.811 367.157 357.49 355.291 357.228 354.018L361.271 352.371C362.544 358.809 366.698 365.846 372.8 366.333C372.912 366.333 373.024 366.333 373.137 366.333Z" fill="#31475E"/>
<path d="M359.174 389.282H359.212C369.693 388.234 369.655 369.967 369.618 367.908V367.796H369.506C360.11 367.609 357.49 355.369 357.228 353.946L357.191 353.722L357.003 353.909C354.945 355.968 352.811 357.016 350.565 357.016H350.528C347.533 356.978 345.587 355.182 345.362 354.994L345.138 354.77V355.069C345.325 381.196 357.715 388.496 359.174 389.282ZM369.356 368.021C369.393 370.566 369.244 387.934 359.212 389.02C357.677 388.196 345.624 380.897 345.4 355.331C346.036 355.855 347.908 357.203 350.528 357.24H350.565C352.811 357.24 354.982 356.23 357.003 354.246C357.453 356.379 360.26 367.721 369.356 368.021Z" fill="#31475E"/>
<path d="M360.411 384.936C358.053 383.439 350.23 377.113 348.957 359.108C348.471 359.034 348.021 358.921 347.61 358.771C348.695 378.423 357.155 385.273 359.7 386.883C363.219 386.134 365.128 382.466 366.176 378.573C365.053 381.68 363.294 384.337 360.411 384.936Z" fill="#FF5C00"/>
<path d="M359.624 387.184C359.661 387.184 359.661 387.184 359.699 387.184C366.287 385.799 367.41 374.607 367.597 369.853C367.597 369.704 367.485 369.591 367.335 369.554C360.635 368.281 357.415 361.543 356.143 357.613C356.105 357.538 356.031 357.463 355.956 357.426C355.881 357.389 355.769 357.389 355.694 357.463C354.047 358.474 352.325 358.961 350.566 358.961H350.491C349.517 358.961 348.582 358.811 347.646 358.511C347.534 358.474 347.459 358.511 347.384 358.549C347.309 358.624 347.272 358.699 347.272 358.811C348.357 378.575 356.891 385.5 359.474 387.147C359.512 387.147 359.587 387.184 359.624 387.184ZM366.998 370.078C366.811 374.794 365.688 385.163 359.699 386.548C357.079 384.826 349.068 378.051 347.908 359.185C348.769 359.41 349.63 359.56 350.528 359.56H350.603C352.362 359.56 354.084 359.073 355.731 358.137C357.116 362.18 360.373 368.655 366.998 370.078Z" fill="#31475E"/>
<path d="M356.474 366.021C356.348 366.323 356.273 366.7 356.273 367.129C356.273 368.186 356.726 369.395 357.406 370.377L356.701 374.809L359.219 376.269L359.496 378.359L354.711 375.589L355.391 371.283C355.391 371.283 354.157 368.564 354.283 367.632C354.585 365.215 356.474 366.021 356.474 366.021Z" fill="#FF5C00"/>
<path d="M359.492 378.533C359.518 378.533 359.568 378.533 359.593 378.508C359.643 378.457 359.694 378.407 359.669 378.331L358.989 373.245C359.694 372.968 360.097 372.212 360.097 371.18C360.097 369.342 358.787 367.075 357.176 366.144C356.37 365.665 355.589 365.59 354.985 365.942C354.406 366.295 354.078 366.975 354.078 367.932C354.078 368.989 354.481 370.173 355.211 371.23L354.506 375.587C354.506 375.662 354.532 375.738 354.607 375.788L359.392 378.558C359.417 378.508 359.442 378.533 359.492 378.533ZM355.841 366.093C356.194 366.093 356.596 366.219 356.999 366.446C358.51 367.302 359.719 369.417 359.719 371.155C359.719 372.086 359.366 372.741 358.712 372.917C358.611 372.943 358.561 373.043 358.586 373.119L359.241 377.979L354.909 375.486L355.589 371.18C355.589 371.13 355.589 371.079 355.564 371.054C354.884 370.072 354.456 368.888 354.456 367.906C354.456 367.101 354.708 366.521 355.186 366.244C355.388 366.144 355.589 366.093 355.841 366.093Z" fill="#FF5C00"/>
<path d="M475.133 85.2354C475.133 80.9618 472.279 77.2142 468.16 76.0776L445.354 69.7854C439.304 68.1163 433.327 72.6675 433.327 78.9432V114.108C433.327 118.382 436.181 122.129 440.301 123.266L463.106 129.558C469.156 131.227 475.133 126.676 475.133 120.4V85.2354Z" fill="white" stroke="#31475E"/>
<path d="M472.576 86.4195C472.576 82.1881 469.778 78.4668 465.713 77.2926L444.824 71.2591C438.749 69.5045 432.688 74.063 432.688 80.386V115.48C432.688 119.712 435.486 123.433 439.551 124.607L460.44 130.641C466.515 132.395 472.576 127.837 472.576 121.514V86.4195Z" fill="white" stroke="#31475E"/>
<path d="M457.728 73.2766L451.758 67.1026L446.107 66.251C446.619 68.38 444.685 68.8412 443.655 68.8057C442.887 78.3436 448.737 87.3278 451.758 90.6277C460.202 89.18 460.749 81.4377 459.967 77.7474C457.749 76.8107 457.55 74.3766 457.728 73.2766Z" fill="white" stroke="#31475E"/>
<path d="M455.407 74.05L449.437 67.876L443.786 67.0244C444.298 69.1534 442.365 69.6147 441.334 69.5792C440.566 79.117 446.416 88.1013 449.437 91.4012C457.881 89.9535 458.428 82.2111 457.646 78.5209C455.429 77.5841 455.23 75.15 455.407 74.05Z" fill="white" stroke="#31475E"/>
<path d="M446.294 80.5831L448.18 82.5017L452.098 75.9238" stroke="#31475E"/>
<line y1="-1.5" x2="24.1329" y2="-1.5" transform="matrix(-0.978036 -0.208434 -0.208434 0.978036 464.866 99.1416)" stroke="#FF5C00" stroke-width="3"/>
<line y1="-1.5" x2="24.1329" y2="-1.5" transform="matrix(-0.978036 -0.208434 -0.208434 0.978036 464.866 103.012)" stroke="#FF5C00" stroke-width="3"/>
<line y1="-1.5" x2="24.1329" y2="-1.5" transform="matrix(-0.978036 -0.208434 -0.208434 0.978036 464.866 106.879)" stroke="#FF5C00" stroke-width="3"/>
<line y1="-1.5" x2="13.1386" y2="-1.5" transform="matrix(-0.97185 -0.2356 -0.2356 0.97185 464.866 111.91)" stroke="#FF5C00" stroke-width="3"/>
<line y1="-1.5" x2="9.03304" y2="-1.5" transform="matrix(-0.985212 -0.171341 -0.171341 0.985212 450.164 108.427)" stroke="#FF5C00" stroke-width="3"/>
<path d="M79.4692 101.453C79.6055 101.78 79.6874 102.189 79.6874 102.653C79.6874 103.798 79.1965 105.107 78.4602 106.171L79.2238 110.97L76.4968 112.552L76.1968 114.815L81.3781 111.816L80.6418 107.153C80.6418 107.153 81.9781 104.207 81.8417 103.198C81.5145 100.58 79.4692 101.453 79.4692 101.453Z" fill="#FF5C00"/>
<path d="M68.4796 124.583C68.4796 124.583 62.9437 121.42 60.5712 120.056C57.9806 118.584 56.5625 115.475 56.5625 111.303V98.6494H57.2443V111.303C57.2443 115.202 58.5532 118.093 60.9257 119.457C63.2982 120.82 68.8341 123.983 68.8341 123.983L68.4796 124.583Z" fill="#31475E"/>
<path d="M71.8321 125.373C70.5232 125.373 69.3233 125.073 68.2598 124.446C65.6964 122.974 64.2783 119.865 64.2783 115.72V103.176C64.2783 103.066 64.3329 102.93 64.4419 102.876L92.8574 86.4862C92.9665 86.4317 93.1029 86.4317 93.212 86.4862C93.321 86.5408 93.3756 86.6498 93.3756 86.7862V99.3305C93.3756 107.757 87.4307 118.038 80.095 122.265L77.8861 123.519C75.7591 124.746 73.7138 125.373 71.8321 125.373ZM64.9601 103.394V115.747C64.9601 119.619 66.2418 122.51 68.6143 123.874C70.9868 125.237 74.1501 124.91 77.5589 122.946L79.7678 121.692C86.8853 117.574 92.6938 107.566 92.6938 99.3577V87.4134L64.9601 103.394Z" fill="#31475E"/>
<path d="M81.2618 84.2392L67.5598 92.1396L67.9004 92.7303L81.6023 84.8298L81.2618 84.2392Z" fill="#31475E"/>
<path d="M64.5527 103.528C64.4981 103.528 64.4436 103.501 64.389 103.474L56.7261 99.0014C56.617 98.9468 56.5625 98.8378 56.5625 98.7014C56.5625 98.5923 56.617 98.456 56.7261 98.4015L63.5709 94.4473L63.8982 95.0472L57.5442 98.7014L64.5527 102.792L92.3409 86.7844L85.278 82.7484L85.6052 82.1484L93.1863 86.4844C93.2954 86.5389 93.3499 86.648 93.3499 86.7844C93.3499 86.8934 93.2954 87.0298 93.1863 87.0843L64.7163 103.501C64.689 103.501 64.6345 103.528 64.5527 103.528Z" fill="#31475E"/>
<path d="M76.1982 115.007C76.1709 115.007 76.1164 115.007 76.0891 114.979C76.0346 114.925 75.98 114.87 76.0073 114.788L76.7436 109.28C75.98 108.98 75.5437 108.162 75.5437 107.044C75.5437 105.053 76.9618 102.599 78.707 101.59C79.5797 101.072 80.4251 100.99 81.0795 101.372C81.7068 101.753 82.0613 102.49 82.0613 103.526C82.0613 104.671 81.6249 105.953 80.8341 107.098L81.5977 111.816C81.5977 111.898 81.5704 111.98 81.4886 112.034L76.3073 115.034C76.28 114.979 76.2527 115.007 76.1982 115.007ZM80.1524 101.535C79.7706 101.535 79.3343 101.672 78.8979 101.917C77.2617 102.844 75.9528 105.135 75.9528 107.016C75.9528 108.025 76.3345 108.734 77.0436 108.925C77.1526 108.953 77.2072 109.062 77.1799 109.144L76.4709 114.407L81.1614 111.707L80.4251 107.044C80.4251 106.989 80.4251 106.935 80.4523 106.907C81.1886 105.844 81.6522 104.562 81.6522 103.499C81.6522 102.626 81.3795 101.999 80.8614 101.699C80.6432 101.59 80.4251 101.535 80.1524 101.535Z" fill="#FF5C00"/>
<path d="M83.2837 89.4795C82.5201 89.4795 81.7565 89.3159 81.1839 88.9887C80.6112 88.6614 80.2567 88.1706 80.2839 87.6524C80.2839 87.107 80.6657 86.5889 81.3475 86.2344L81.5384 86.5889C80.993 86.8889 80.693 87.2706 80.693 87.6524C80.693 88.0069 80.9384 88.3614 81.402 88.6341C82.4383 89.2341 84.1563 89.2341 85.1926 88.6341C85.7107 88.3342 85.9834 87.9797 85.9834 87.6252C85.9834 87.2979 85.7652 86.9979 85.3289 86.7525L85.5471 86.398C86.1198 86.7252 86.4197 87.1616 86.4197 87.6252C86.4197 88.1433 86.0652 88.6069 85.4107 88.9887C84.8108 89.3159 84.0472 89.4795 83.2837 89.4795Z" fill="#FF5C00"/>
<path d="M65.6437 99.8508C64.8801 99.8508 64.1166 99.6872 63.5439 99.36C62.9439 99.0055 62.6167 98.5419 62.6167 98.0237C62.6167 97.5056 62.9439 97.042 63.5439 96.6875L63.762 97.042C63.2985 97.3147 63.0258 97.6692 63.0258 98.0237C63.0258 98.3782 63.2712 98.7328 63.762 99.0055C64.7983 99.6054 66.5163 99.6054 67.5526 99.0055C68.0162 98.7328 68.2889 98.3782 68.2889 98.0237C68.2889 97.6692 68.0435 97.3147 67.5526 97.042L67.7708 96.6875C68.3707 97.042 68.6979 97.5056 68.6979 98.0237C68.6979 98.5419 68.3707 99.0055 67.7708 99.36C67.1708 99.66 66.4073 99.8508 65.6437 99.8508Z" fill="#FF5C00"/>
<path d="M65.7511 98.9712C65.4511 98.9712 65.1511 98.944 64.8784 98.8622C63.8421 98.5622 63.5149 97.9623 63.5695 97.5259H63.5967C63.5695 97.335 63.5695 97.0351 63.5695 96.4624V90.5993C63.5695 84.1908 67.9327 76.637 73.5231 73.3918C76.6046 71.6193 79.6043 71.4011 82.0041 72.7646C84.3766 74.1281 85.6855 76.8279 85.6855 80.373L85.7128 87.3269C85.6856 87.8723 85.222 88.3359 84.4311 88.5541C83.8312 88.7177 83.1767 88.7177 82.5768 88.5541C81.7859 88.3359 81.2951 87.8723 81.2951 87.3269H81.3223C81.2951 87.1633 81.2951 86.836 81.2951 86.2361V80.373C81.2951 78.5186 80.7497 77.1279 79.8225 76.6097C78.868 76.0643 77.3954 76.2825 75.7592 77.2369C71.5596 79.664 68.0145 85.7725 68.0145 90.5993V97.5532C68.069 97.9895 67.7418 98.5895 66.7055 98.8894C66.3237 98.9167 66.0238 98.9712 65.7511 98.9712ZM63.9512 97.4987V97.5259C63.924 97.9077 64.3057 98.2622 64.9875 98.4258C65.4784 98.5622 66.0238 98.5622 66.5146 98.4258C67.1691 98.235 67.5782 97.8804 67.5236 97.5259V90.5448C67.5236 85.6089 71.1778 79.3095 75.4865 76.8279C77.2591 75.8189 78.8953 75.5735 79.9588 76.2007C81.0224 76.8279 81.6496 78.3277 81.6496 80.3185C81.6496 82.6364 81.6496 87.0542 81.6496 87.2451C81.6496 87.5996 82.0313 87.9268 82.6313 88.0905C83.1494 88.2541 83.7221 88.2541 84.2402 88.0905C84.8402 87.9268 85.222 87.5996 85.222 87.2451L85.1947 80.3185C85.1947 76.937 83.9675 74.3736 81.7314 73.0646C79.468 71.7556 76.6046 71.9738 73.6594 73.6918C68.2054 76.8552 63.924 84.2454 63.924 90.5448H63.7058H63.924C63.9512 92.89 63.9512 97.3078 63.9512 97.4987Z" fill="#31475E"/>
<path d="M99.5727 111.97L99.5727 111.97L99.5689 111.968C97.9904 111.037 96.5994 110.95 95.5971 111.429C95.4767 111.495 95.0408 111.754 94.6207 112.004C94.4134 112.128 94.2129 112.248 94.062 112.338L98.2496 122.143L102.593 126.909L102.613 126.899C102.768 126.819 102.978 126.711 103.195 126.598C103.412 126.485 103.635 126.368 103.817 126.268C104.01 126.163 104.132 126.092 104.167 126.066L104.173 126.062L104.179 126.058C105.061 125.47 105.65 124.254 105.65 122.462C105.65 120.552 104.977 118.409 103.87 116.495C102.762 114.58 101.239 112.925 99.5727 111.97ZM100.317 118.363C100.368 118.017 100.368 118.017 100.368 118.017L100.368 118.017L100.369 118.017L100.371 118.017L100.376 118.018L100.395 118.021C100.41 118.024 100.432 118.028 100.459 118.033C100.513 118.043 100.589 118.059 100.682 118.082C100.868 118.129 101.122 118.204 101.399 118.321C101.943 118.551 102.623 118.963 102.994 119.681C103.358 120.385 103.352 121.13 103.267 121.676C103.224 121.952 103.159 122.186 103.105 122.351C103.078 122.434 103.053 122.501 103.035 122.547C103.026 122.571 103.018 122.589 103.013 122.602L103.006 122.618L103.004 122.623L103.003 122.625L103.003 122.625L103.003 122.626C103.003 122.626 103.003 122.626 102.683 122.483L103.003 122.626L102.9 122.856L102.648 122.831C102.394 122.806 102.109 122.729 101.825 122.549C101.257 122.217 100.761 121.673 100.406 121.067C100.05 120.46 99.8193 119.761 99.8193 119.103C99.8193 118.758 99.893 118.456 99.9973 118.221L100.105 117.979L100.368 118.017L100.317 118.363Z" fill="#FFE7DA" stroke="#31475E" stroke-width="0.7"/>
<path d="M81.7849 111.04L83.5828 109.853L84.1256 109.495V110.145V112.091L84.9421 111.581L85.0912 111.488L85.255 111.552L92.3328 114.318L92.6519 112.897L80.2474 105.753L79.1792 106.368L81.7849 111.04Z" fill="#FFE7DA" stroke="#31475E" stroke-width="0.7"/>
<path d="M92.536 114.213L92.3976 114.614L92.0301 114.402L79.0557 106.91V107.307L81.1158 110.822L81.3133 110.936V109.367V108.759L81.8389 109.064L82.8952 109.677L83.0696 109.778V109.98V111.891L83.4259 112.097V111.332V110.724L83.9515 111.029L85.0078 111.642L85.1822 111.743V111.944V113.2L90.4792 116.268L90.5593 116.314L90.606 116.394L91.3619 117.687L92.38 118.275L92.5092 118.349L92.5449 118.494C93.3504 121.757 95.6248 125.091 98.2943 126.619L98.2952 126.619C99.9534 127.576 101.372 127.623 102.354 127.06C103.334 126.497 104.003 125.253 104.003 123.352C104.003 121.453 103.33 119.322 102.225 117.414C101.12 115.507 99.6018 113.858 97.9455 112.902L97.9448 112.902C96.6127 112.129 95.4369 111.944 94.5249 112.19C93.6249 112.432 92.9165 113.111 92.536 114.213ZM103.034 122.338C103.034 123.119 102.757 123.762 102.208 124.076C101.659 124.39 100.965 124.304 100.29 123.909C99.611 123.522 99.0169 122.863 98.5935 122.127C98.1696 121.391 97.8972 120.544 97.8972 119.761C97.8972 118.98 98.1738 118.338 98.7229 118.023C99.2721 117.709 99.9668 117.795 100.642 118.191C101.319 118.588 101.913 119.245 102.337 119.979C102.761 120.713 103.034 121.555 103.034 122.338Z" fill="#FFE7DA" stroke="#31475E" stroke-width="0.7"/>
<path d="M293.974 94.8393V121.57L250.971 99.6681V72.9378L293.974 94.8393Z" fill="white" stroke="#31475E"/>
<mask id="path-69-inside-1_395_13079" fill="white">
<path d="M294.591 122.619L294.416 122.502L250.355 100.033V71.8877L250.53 72.0047L294.591 94.474V122.619ZM250.589 99.9157L294.298 122.209V94.6495L250.589 72.3558V99.9157Z"/>
</mask>
<path d="M294.591 122.619L294.416 122.502L250.355 100.033V71.8877L250.53 72.0047L294.591 94.474V122.619ZM250.589 99.9157L294.298 122.209V94.6495L250.589 72.3558V99.9157Z" fill="#31475E"/>
<path d="M294.591 122.619L294.036 123.451L295.591 124.487V122.619H294.591ZM294.416 122.502L294.97 121.67L294.922 121.638L294.87 121.611L294.416 122.502ZM250.355 100.033H249.355V100.645L249.9 100.924L250.355 100.033ZM250.355 71.8877L250.909 71.0556L249.355 70.0193V71.8877H250.355ZM250.53 72.0047L249.976 72.8368L250.024 72.8691L250.076 72.8956L250.53 72.0047ZM294.591 94.474H295.591V93.8614L295.045 93.5831L294.591 94.474ZM250.589 99.9157H249.589V100.528L250.134 100.807L250.589 99.9157ZM294.298 122.209L293.844 123.1L295.298 123.842V122.209H294.298ZM294.298 94.6495H295.298V94.037L294.753 93.7587L294.298 94.6495ZM250.589 72.3558L251.043 71.465L249.589 70.7232V72.3558H250.589ZM295.146 121.787L294.97 121.67L293.861 123.334L294.036 123.451L295.146 121.787ZM294.87 121.611L250.809 99.1419L249.9 100.924L293.961 123.393L294.87 121.611ZM251.355 100.033V71.8877H249.355V100.033H251.355ZM249.8 72.7198L249.976 72.8368L251.085 71.1727L250.909 71.0556L249.8 72.7198ZM250.076 72.8956L294.137 95.3648L295.045 93.5831L250.985 71.1139L250.076 72.8956ZM293.591 94.474V122.619H295.591V94.474H293.591ZM250.134 100.807L293.844 123.1L294.753 121.319L251.043 99.0249L250.134 100.807ZM295.298 122.209V94.6495H293.298V122.209H295.298ZM294.753 93.7587L251.043 71.465L250.134 73.2466L293.844 95.5403L294.753 93.7587ZM249.589 72.3558V99.9157H251.589V72.3558H249.589Z" fill="#31475E" mask="url(#path-69-inside-1_395_13079)"/>
<path d="M293.101 94.3999L286.318 96.331L286.307 96.334L286.297 96.3376L285.083 96.7421L283.987 97.0305L283.983 97.0317L283.344 97.2058L283.115 97.2631L283.1 97.2667L283.086 97.2713L281.989 97.6178L281.301 97.7897L281.294 97.7915L281.287 97.7935L272.665 100.224L262.861 87.438L262.86 87.4366L261.865 86.1493L261.845 86.124L261.823 86.1015L261.731 86.0096L260.875 84.8677L260.875 84.8676L260.867 84.8573L259.759 83.4581L257.305 80.1866L257.305 80.1866L257.302 80.1817L252.22 73.5755L263.524 79.352L263.524 79.3521L272.243 83.7991L272.243 83.7992L286.227 90.9378L286.23 90.939L293.101 94.3999Z" fill="white" stroke="#31475E"/>
<mask id="path-72-inside-2_395_13079" fill="white">
<path d="M272.411 100.968L250 71.7109L294.88 94.5898L281.48 98.3932L272.411 100.968ZM250.936 72.5301L272.528 100.675L272.703 100.617L294.119 94.5312L250.936 72.5301Z"/>
</mask>
<path d="M272.411 100.968L250 71.7109L294.88 94.5898L281.48 98.3932L272.411 100.968ZM250.936 72.5301L272.528 100.675L272.703 100.617L294.119 94.5312L250.936 72.5301Z" fill="#31475E"/>
<path d="M272.411 100.968L271.617 101.576L272.03 102.115L272.684 101.93L272.411 100.968ZM250 71.7109L250.454 70.82L249.206 72.319L250 71.7109ZM294.88 94.5898L295.153 95.5518L297.604 94.856L295.334 93.6989L294.88 94.5898ZM281.48 98.3932L281.207 97.4312L281.207 97.4312L281.48 98.3932ZM250.936 72.5301L251.39 71.6391L250.143 73.1388L250.936 72.5301ZM272.528 100.675L271.734 101.284L272.168 101.849L272.844 101.624L272.528 100.675ZM272.703 100.617L272.43 99.6547L272.408 99.6609L272.387 99.668L272.703 100.617ZM294.119 94.5312L294.393 95.4932L296.843 94.7968L294.573 93.6402L294.119 94.5312ZM273.205 100.36L250.794 71.1028L249.206 72.319L271.617 101.576L273.205 100.36ZM249.546 72.6019L294.426 95.4807L295.334 93.6989L250.454 70.82L249.546 72.6019ZM294.607 93.6278L281.207 97.4312L281.753 99.3552L295.153 95.5518L294.607 93.6278ZM281.207 97.4312L272.138 100.006L272.684 101.93L281.753 99.3551L281.207 97.4312ZM250.143 73.1388L271.734 101.284L273.321 100.067L251.73 71.9215L250.143 73.1388ZM272.844 101.624L273.02 101.565L272.387 99.668L272.211 99.7265L272.844 101.624ZM272.977 101.579L294.393 95.4932L293.846 93.5693L272.43 99.6547L272.977 101.579ZM294.573 93.6402L251.39 71.6391L250.482 73.4211L293.665 95.4223L294.573 93.6402Z" fill="#31475E" mask="url(#path-72-inside-2_395_13079)"/>
<path d="M251.848 72.2633L272.278 66.7212L292.709 93.0752L272.696 82.9091L272.695 82.9086L251.848 72.2633Z" fill="white" stroke="#31475E"/>
<mask id="path-75-inside-3_395_13079" fill="white">
<path d="M294.938 94.9408L250.058 72.062L250.409 71.945L272.528 65.9766L272.586 66.0351L294.938 94.9408ZM250.819 72.179L293.944 94.1801L272.352 66.3276L250.819 72.179Z"/>
</mask>
<path d="M294.938 94.9408L250.058 72.062L250.409 71.945L272.528 65.9766L272.586 66.0351L294.938 94.9408ZM250.819 72.179L293.944 94.1801L272.352 66.3276L250.819 72.179Z" fill="#31475E"/>
<path d="M294.938 94.9408L294.484 95.8317L295.729 94.3291L294.938 94.9408ZM250.058 72.062L249.742 71.1133L247.477 71.8684L249.604 72.9529L250.058 72.062ZM250.409 71.945L250.149 70.9795L250.121 70.9871L250.093 70.9963L250.409 71.945ZM272.528 65.9766L273.235 65.2696L272.826 64.8603L272.267 65.0111L272.528 65.9766ZM272.586 66.0351L273.377 65.4234L273.338 65.3731L273.293 65.3281L272.586 66.0351ZM250.819 72.179L250.557 71.214L248.058 71.893L250.365 73.0698L250.819 72.179ZM293.944 94.1801L293.489 95.0709L294.734 93.5675L293.944 94.1801ZM272.352 66.3276L273.142 65.715L272.734 65.1877L272.09 65.3626L272.352 66.3276ZM295.392 94.0499L250.513 71.1711L249.604 72.9529L294.484 95.8317L295.392 94.0499ZM250.375 73.0107L250.726 72.8936L250.093 70.9963L249.742 71.1133L250.375 73.0107ZM250.67 72.9104L272.788 66.942L272.267 65.0111L250.149 70.9795L250.67 72.9104ZM271.82 66.6836L271.879 66.7421L273.293 65.3281L273.235 65.2696L271.82 66.6836ZM271.795 66.6468L294.147 95.5525L295.729 94.3291L273.377 65.4234L271.795 66.6468ZM250.365 73.0698L293.489 95.0709L294.398 93.2894L251.274 71.2882L250.365 73.0698ZM294.734 93.5675L273.142 65.715L271.562 66.9403L293.153 94.7928L294.734 93.5675ZM272.09 65.3626L250.557 71.214L251.081 73.144L272.614 67.2927L272.09 65.3626Z" fill="#31475E" mask="url(#path-75-inside-3_395_13079)"/>
<path d="M272.695 110.758L251.971 100.176L261.567 98.2361L272.272 96.0723L283.082 109.297L283.083 109.298L292.57 120.855L272.696 110.759L272.695 110.758Z" fill="white" stroke="#31475E"/>
<mask id="path-78-inside-4_395_13079" fill="white">
<path d="M294.997 122.791L250.058 99.9118L272.528 95.4062L272.586 95.4648L294.997 122.791ZM250.878 100.029L293.944 121.971L272.411 95.6988L250.878 100.029Z"/>
</mask>
<path d="M294.997 122.791L250.058 99.9118L272.528 95.4062L272.586 95.4648L294.997 122.791ZM250.878 100.029L293.944 121.971L272.411 95.6988L250.878 100.029Z" fill="#31475E"/>
<path d="M294.997 122.791L294.543 123.682L295.77 122.156L294.997 122.791ZM250.058 99.9118L249.862 98.9313L247.04 99.4972L249.605 100.803L250.058 99.9118ZM272.528 95.4062L273.235 94.6993L272.856 94.3205L272.331 94.4258L272.528 95.4062ZM272.586 95.4648L273.359 94.8306L273.328 94.7926L273.293 94.7578L272.586 95.4648ZM250.878 100.029L250.68 99.0484L247.863 99.615L250.424 100.92L250.878 100.029ZM293.944 121.971L293.49 122.862L294.717 121.338L293.944 121.971ZM272.411 95.6988L273.184 95.0649L272.803 94.5999L272.213 94.7184L272.411 95.6988ZM295.451 121.899L250.512 99.0206L249.605 100.803L294.543 123.682L295.451 121.899ZM250.255 100.892L272.724 96.3867L272.331 94.4258L249.862 98.9313L250.255 100.892ZM271.82 96.1132L271.879 96.1718L273.293 94.7578L273.235 94.6993L271.82 96.1132ZM271.813 96.0989L294.224 123.425L295.77 122.156L273.359 94.8306L271.813 96.0989ZM250.424 100.92L293.49 122.862L294.398 121.08L251.332 99.1378L250.424 100.92ZM294.717 121.338L273.184 95.0649L271.637 96.3327L293.17 122.605L294.717 121.338ZM272.213 94.7184L250.68 99.0484L251.075 101.009L272.608 96.6792L272.213 94.7184Z" fill="#31475E" mask="url(#path-78-inside-4_395_13079)"/>
<path opacity="0.16" d="M281.304 97.7898L281.297 97.7916L281.289 97.7936L272.897 100.159L264.254 88.8604V78.9069V70.8922L283.027 80.5872L285.957 84.4015V90.4926V96.4516L285.086 96.7422L283.989 97.0307L283.989 97.0306L283.985 97.0318L283.347 97.2059L283.118 97.2632L283.103 97.2669L283.088 97.2715L281.991 97.6179L281.304 97.7898Z" stroke="#FF5C00"/>
<path d="M283.988 97.0328L283.988 97.0328L283.984 97.0339L283.346 97.2081L283.117 97.2653L283.102 97.269L283.087 97.2736L281.99 97.6201L281.303 97.7919L281.296 97.7937L281.289 97.7956L272.662 100.22L262.966 87.5749V69.6069L283.883 80.4047L283.886 80.4065L284.727 80.8492V96.8383L283.988 97.0328Z" fill="white" stroke="#31475E"/>
<mask id="path-82-inside-5_395_13079" fill="white">
<path d="M272.412 100.967L272.354 100.909L262.289 87.8018V68.5508L262.523 68.6678L285.344 80.429V97.281L272.412 100.967ZM262.582 87.6847L272.529 100.616L285.051 97.0469V80.5461L284.056 80.0194L262.582 69.0189V87.6847Z"/>
</mask>
<path d="M272.412 100.967L272.354 100.909L262.289 87.8018V68.5508L262.523 68.6678L285.344 80.429V97.281L272.412 100.967ZM262.582 87.6847L272.529 100.616L285.051 97.0469V80.5461L284.056 80.0194L262.582 69.0189V87.6847Z" fill="#31475E"/>
<path d="M272.412 100.967L271.705 101.674L272.121 102.09L272.686 101.929L272.412 100.967ZM272.354 100.909L271.561 101.518L271.6 101.57L271.646 101.616L272.354 100.909ZM262.289 87.8018H261.289V88.1414L261.496 88.4108L262.289 87.8018ZM262.289 68.5508L262.736 67.6563L261.289 66.9329V68.5508H262.289ZM262.523 68.6678L262.982 67.7788L262.971 67.7733L262.523 68.6678ZM285.344 80.429H286.344V79.8194L285.802 79.5402L285.344 80.429ZM285.344 97.281L285.618 98.2426L286.344 98.0357V97.281H285.344ZM262.582 87.6847H261.582V88.0248L261.789 88.2944L262.582 87.6847ZM272.529 100.616L271.737 101.226L272.15 101.764L272.803 101.578L272.529 100.616ZM285.051 97.0469L285.325 98.0086L286.051 97.8017V97.0469H285.051ZM285.051 80.5461H286.051V79.944L285.519 79.6623L285.051 80.5461ZM284.056 80.0194L284.524 79.1356L284.512 79.1294L284.056 80.0194ZM262.582 69.0189L263.038 68.1289L261.582 67.3831L261.582 69.0189H262.582ZM273.119 100.26L273.061 100.202L271.646 101.616L271.705 101.674L273.119 100.26ZM273.147 100.3L263.082 87.1927L261.496 88.4108L271.561 101.518L273.147 100.3ZM263.289 87.8018V68.5508H261.289V87.8018H263.289ZM261.842 69.4452L262.076 69.5623L262.971 67.7733L262.736 67.6563L261.842 69.4452ZM262.065 69.5567L284.886 81.3179L285.802 79.5402L262.981 67.7789L262.065 69.5567ZM284.344 80.429V97.281H286.344V80.429H284.344ZM285.07 96.3193L272.138 100.006L272.686 101.929L285.618 98.2426L285.07 96.3193ZM261.789 88.2944L271.737 101.226L273.322 100.007L263.374 87.075L261.789 88.2944ZM272.803 101.578L285.325 98.0086L284.777 96.0852L272.255 99.6546L272.803 101.578ZM286.051 97.0469V80.5461H284.051V97.0469H286.051ZM285.519 79.6623L284.524 79.1357L283.588 80.9032L284.583 81.4299L285.519 79.6623ZM284.512 79.1294L263.038 68.1289L262.126 69.9089L283.6 80.9095L284.512 79.1294ZM261.582 69.0189V87.6847H263.582V69.0189H261.582Z" fill="#FF5C00" mask="url(#path-82-inside-5_395_13079)"/>
<path opacity="0.16" d="M283.118 97.2643L283.103 97.268L283.089 97.2726L281.992 97.6191L281.304 97.7909L281.297 97.7927L281.29 97.7947L272.664 100.219L262.967 87.5739V69.606L283.617 80.2658V97.1334L283.347 97.2071L283.118 97.2643Z" stroke="#FF5C00"/>
<path d="M281.303 97.7903L281.296 97.7921L281.289 97.794L272.663 100.219L261.868 86.1512L261.848 86.1253L261.825 86.1021L261.733 86.0102L260.977 85.0017V64.8642L282.739 76.0528V97.3823L281.991 97.6185L281.303 97.7903Z" fill="white" stroke="#FF5C00"/>
<mask id="path-86-inside-6_395_13079" fill="white">
<path d="M272.413 100.967L272.354 100.908L260.3 85.2265V63.8105L260.534 63.9276L283.355 75.6888V97.924L281.482 98.4506L272.413 100.967ZM260.593 85.1095L272.53 100.616L283.062 97.6314V75.8058L260.593 64.2201V85.1095Z"/>
</mask>
<path d="M272.413 100.967L272.354 100.908L260.3 85.2265V63.8105L260.534 63.9276L283.355 75.6888V97.924L281.482 98.4506L272.413 100.967ZM260.593 85.1095L272.53 100.616L283.062 97.6314V75.8058L260.593 64.2201V85.1095Z" fill="#FF5C00"/>
<path d="M272.413 100.967L271.705 101.674L272.118 102.086L272.68 101.93L272.413 100.967ZM272.354 100.908L271.561 101.518L271.601 101.569L271.647 101.615L272.354 100.908ZM260.3 85.2265H259.3V85.5665L259.507 85.836L260.3 85.2265ZM260.3 63.8105L260.747 62.9161L259.3 62.1926V63.8105H260.3ZM260.534 63.9276L260.993 63.0386L260.982 63.0331L260.534 63.9276ZM283.355 75.6888H284.355V75.0792L283.813 74.7999L283.355 75.6888ZM283.355 97.924L283.625 98.8866L284.355 98.6815V97.924H283.355ZM281.482 98.4506L281.75 99.4142L281.753 99.4133L281.482 98.4506ZM260.593 85.1095H259.593V85.4498L259.8 85.7195L260.593 85.1095ZM272.53 100.616L271.737 101.226L272.15 101.762L272.802 101.578L272.53 100.616ZM283.062 97.6314L283.335 98.5935L284.062 98.3874V97.6314H283.062ZM283.062 75.8058H284.062V75.1964L283.52 74.917L283.062 75.8058ZM260.593 64.2201L261.051 63.3313L259.593 62.5794V64.2201H260.593ZM273.12 100.26L273.061 100.201L271.647 101.615L271.705 101.674L273.12 100.26ZM273.147 100.299L261.093 84.6171L259.507 85.836L271.561 101.518L273.147 100.299ZM261.3 85.2265V63.8105H259.3V85.2265H261.3ZM259.853 64.705L260.087 64.822L260.982 63.0331L260.747 62.9161L259.853 64.705ZM260.076 64.8165L282.897 76.5777L283.813 74.7999L260.992 63.0387L260.076 64.8165ZM282.355 75.6888V97.924H284.355V75.6888H282.355ZM283.084 96.9613L281.211 97.488L281.753 99.4133L283.625 98.8866L283.084 96.9613ZM281.215 97.487L272.145 100.003L272.68 101.93L281.75 99.4142L281.215 97.487ZM259.8 85.7195L271.737 101.226L273.322 100.006L261.385 84.4995L259.8 85.7195ZM272.802 101.578L283.335 98.5935L282.79 96.6693L272.257 99.6535L272.802 101.578ZM284.062 97.6314V75.8058H282.062V97.6314H284.062ZM283.52 74.917L261.051 63.3313L260.135 65.1089L282.604 76.6946L283.52 74.917ZM259.593 64.2201V85.1095H261.593V64.2201H259.593Z" fill="#FF5C00" mask="url(#path-86-inside-6_395_13079)"/>
<path opacity="0.11" d="M272.718 100.102L272.782 100.186L272.661 100.22L261.867 86.1522L261.847 86.1262L261.824 86.1031L261.732 86.0112L260.976 85.0027V84.7738L261.59 85.5772L261.698 85.7392L261.707 85.7531L261.717 85.7663L272.718 100.102Z" stroke="#31475E"/>
<path d="M93.1754 335.898C92.944 343.186 87.7385 352.296 81.6076 356.2C77.9927 358.513 74.8405 358.484 72.9029 356.576C74.6959 357.038 76.9806 356.576 79.4676 354.985C85.5985 351.081 90.804 341.971 91.0354 334.684C91.1221 331.676 89.734 329.189 88.4037 327.888C91.0353 328.553 93.32 331.56 93.1754 335.898Z" fill="white"/>
<path d="M76.4272 358.079C77.9889 358.079 79.7819 357.472 81.6616 356.286C87.8214 352.353 93.0269 343.214 93.2583 335.898C93.4029 331.213 90.858 328.408 88.3998 327.771L88.0528 327.685L88.3131 327.945C89.6434 329.246 91.0315 331.675 90.9158 334.654C90.6845 341.913 85.5079 350.994 79.4059 354.869C77.0056 356.373 74.7788 356.922 72.928 356.43L72.5809 356.344L72.8412 356.604C73.7956 357.587 75.0102 358.079 76.4272 358.079ZM88.718 328.061C90.9737 328.841 93.2005 331.531 93.0559 335.869C92.8245 343.128 87.6479 352.208 81.5459 356.083C78.2202 358.194 75.2126 358.397 73.2461 356.72C75.068 357.067 77.237 356.488 79.5216 355.042C85.6814 351.109 90.8869 341.971 91.1471 334.654C91.205 331.82 89.9904 329.449 88.718 328.061Z" fill="#31475E"/>
<path d="M72.2651 358.183L70.0094 356.911C68.737 356.188 67.4934 354.915 67.0597 354.134C66.568 353.209 66.221 352.226 65.9607 350.144L68.5345 351.156C68.5635 351.127 70.5589 356.679 72.2651 358.183Z" fill="white"/>
<path d="M72.2417 358.267L72.3574 358.093C70.6801 356.647 68.6847 351.152 68.6558 351.095L68.6268 351.066L65.8506 349.967L65.8795 350.14C66.1687 352.309 66.5157 353.293 67.0073 354.189C67.4411 354.999 68.6847 356.271 69.986 357.023L72.2417 358.267ZM68.4822 351.21C68.6557 351.702 70.2174 355.895 71.7501 357.746L70.1017 356.821C68.8293 356.098 67.6147 354.854 67.2098 354.073C66.7471 353.235 66.4 352.28 66.1398 350.285L68.4822 351.21Z" fill="#31475E"/>
<path d="M69.2582 348.916C70.3282 337.753 79.4667 325.346 89.9355 326.59C78.8305 318.984 66.482 337.406 66.1638 347.152C66.3374 347.267 69.2293 348.916 69.2582 348.916Z" fill="white"/>
<path d="M69.3176 349.089V348.944C70.0117 341.83 73.858 334.456 79.1502 330.205C82.5338 327.486 86.2355 326.272 89.8793 326.705L90.2842 326.763L89.9661 326.532C86.7271 324.334 83.0833 324.132 79.4105 326.011C72.1517 329.684 66.2522 340.413 66.0209 347.18V347.238L66.0787 347.267C66.1944 347.325 67.1198 347.874 67.9584 348.337C68.6236 348.713 69.202 349.031 69.202 349.06L69.3176 349.089ZM88.4623 326.416C85.2522 326.416 82.0422 327.66 79.0635 330.06C73.7712 334.311 69.9249 341.628 69.173 348.771C68.9706 348.655 68.5368 348.395 68.0452 348.135C67.2933 347.701 66.4546 347.238 66.2233 347.094C66.4836 340.384 72.2964 329.8 79.4973 326.156C83.0254 324.363 86.409 324.479 89.5323 326.445C89.1563 326.416 88.8093 326.416 88.4623 326.416Z" fill="#31475E"/>
<path d="M66.1267 347.154L61.1815 350.075L63.3505 351.29L68.2957 348.369L66.1267 347.154Z" fill="white"/>
<path d="M63.3566 351.405L68.4753 348.339L66.1329 347.009L60.9853 350.074L63.3566 351.405ZM68.0994 348.368L63.3566 351.202L61.3901 350.103L66.1329 347.269L68.0994 348.368Z" fill="#31475E"/>
<path d="M68.227 348.364C69.1813 342.06 72.1022 335.755 75.7749 331.967C75.9774 331.765 76.1798 331.562 76.3822 331.36C76.469 331.302 76.5268 331.215 76.5847 331.157C76.7293 331.042 76.8449 330.897 76.9895 330.781C77.0763 330.695 77.1631 330.637 77.2498 330.55C77.3655 330.434 77.4812 330.319 77.5969 330.232C77.6836 330.145 77.7704 330.087 77.8571 330C77.9728 329.914 78.0885 329.798 78.2042 329.711C78.2909 329.625 78.3777 329.567 78.4644 329.509C78.5801 329.422 78.6958 329.335 78.7825 329.249C78.8693 329.191 78.9561 329.104 79.0428 329.046C79.1585 328.959 79.2453 328.873 79.3609 328.815C79.4477 328.757 79.5345 328.699 79.6212 328.641C79.7369 328.555 79.8236 328.497 79.9393 328.41C80.0261 328.352 80.1128 328.294 80.1996 328.236C80.3153 328.179 80.402 328.092 80.5177 328.034C80.6045 327.976 80.6912 327.918 80.778 327.889C80.8937 327.832 80.9804 327.774 81.0961 327.687C81.1829 327.629 81.2696 327.6 81.3564 327.542C81.4721 327.484 81.5588 327.427 81.6745 327.369C81.7612 327.34 81.848 327.282 81.9058 327.253C82.0215 327.195 82.1083 327.137 82.224 327.109C82.3107 327.08 82.3685 327.022 82.4553 326.993C82.571 326.935 82.6577 326.906 82.7734 326.848C82.8602 326.819 82.918 326.79 83.0048 326.762C83.1204 326.704 83.2072 326.675 83.3229 326.646C83.3807 326.617 83.4675 326.588 83.5253 326.559C83.641 326.53 83.7278 326.472 83.8434 326.443C83.9013 326.414 83.988 326.386 84.0459 326.386C84.1615 326.357 84.2483 326.328 84.364 326.299C84.4218 326.27 84.4797 326.27 84.5664 326.241C84.6821 326.212 84.7689 326.183 84.8845 326.154C84.9424 326.154 85.0002 326.125 85.058 326.125C85.1737 326.096 85.2605 326.096 85.3761 326.067C85.434 326.067 85.4918 326.039 85.5497 326.039C85.6654 326.01 85.7521 326.01 85.8678 325.981C85.9256 325.981 85.9835 325.981 86.0413 325.952C86.157 325.952 86.2437 325.923 86.3594 325.923C86.4172 325.923 86.4751 325.923 86.504 325.923C86.6197 325.923 86.7064 325.923 86.8221 325.923C86.8799 325.923 86.9089 325.923 86.9667 325.923C87.0824 325.923 87.1692 325.923 87.2848 325.923C87.3138 325.923 87.3716 325.923 87.4005 325.923C87.5162 325.923 87.603 325.952 87.7186 325.952C87.7476 325.952 87.8054 325.952 87.8343 325.981C87.95 326.01 88.0368 326.01 88.1524 326.039C88.1813 326.039 88.2102 326.039 88.2681 326.067C88.3838 326.096 88.4705 326.125 88.5862 326.154C88.6151 326.154 88.644 326.183 88.673 326.183C88.7886 326.212 88.8754 326.241 88.9911 326.27C89.02 326.27 89.0489 326.299 89.0778 326.299C89.1935 326.328 89.2803 326.386 89.3959 326.414C89.4249 326.414 89.4538 326.443 89.4538 326.443C89.5695 326.501 89.6562 326.53 89.7719 326.588C89.8008 326.588 89.8008 326.617 89.8297 326.617C89.9454 326.675 90.0322 326.733 90.1478 326.79C90.1768 326.79 90.1768 326.819 90.2057 326.819C90.3214 326.877 90.4081 326.935 90.5238 327.022L90.5527 327.051C90.6684 327.109 90.7551 327.195 90.8708 327.282C90.8708 327.282 90.8998 327.282 90.8998 327.311C91.0154 327.398 91.1022 327.484 91.189 327.571C91.189 327.571 91.189 327.571 91.2179 327.571C91.3046 327.658 91.4203 327.745 91.5071 327.86C94.5436 330.955 95.122 337.491 91.6228 345.27C85.9546 358.37 72.0733 363.981 68.8343 353.975C68.8343 353.946 68.8054 353.917 68.8054 353.859C68.6608 353.396 68.5451 352.905 68.4294 352.384C68.4294 352.326 68.4005 352.268 68.4005 352.211C68.3427 351.95 68.3137 351.69 68.2848 351.401L64.5253 353.657L62.848 351.719C62.848 351.632 67.8221 348.625 68.227 348.364ZM87.7476 348.567C93.3868 341.106 94.399 328.93 88.0078 327.774C87.8922 327.745 87.7765 327.745 87.6319 327.716C87.6029 327.716 87.5451 327.716 87.5162 327.716C87.3716 327.716 87.227 327.687 87.0824 327.687C87.0535 327.687 87.0535 327.687 87.0246 327.687C86.8511 327.687 86.7064 327.687 86.5329 327.716C86.504 327.716 86.4462 327.716 86.4173 327.716C86.2727 327.716 86.157 327.745 86.0124 327.774C85.9546 327.774 85.9256 327.774 85.8678 327.803C85.6943 327.832 85.5207 327.86 85.3472 327.889C85.3183 327.889 85.3183 327.889 85.2894 327.889C85.1159 327.918 84.9135 327.976 84.711 328.034C84.6532 328.063 84.5953 328.063 84.5375 328.092C84.3929 328.15 84.2483 328.179 84.0748 328.236C84.0169 328.265 83.9591 328.265 83.9013 328.294C83.6988 328.381 83.4964 328.439 83.2651 328.526C74.9652 332.43 68.5162 344.316 70.4538 352.239C70.5116 352.442 70.5694 352.644 70.6273 352.847C70.6273 352.905 70.6562 352.934 70.6562 352.991C70.7141 353.165 70.743 353.309 70.8008 353.454C70.8008 353.483 70.8297 353.512 70.8297 353.541C70.9743 353.917 71.09 354.264 71.2635 354.582C74.8495 361.87 83.988 353.512 87.7476 348.567Z" fill="#DBE0E6"/>
<path d="M75.4339 359.126C81.3334 359.126 88.2451 353.256 91.7155 345.245C94.9834 337.986 94.9255 331.103 91.5709 327.72C91.4552 327.604 91.3684 327.517 91.2528 327.431C91.1371 327.315 91.0214 327.228 90.9347 327.17L90.9057 327.141C90.819 327.055 90.7033 326.997 90.5876 326.91L90.5587 326.881C90.443 326.823 90.3563 326.737 90.2406 326.679L90.2117 326.65C90.096 326.592 89.9803 326.534 89.8646 326.476L89.8068 326.447C89.6911 326.39 89.6044 326.361 89.4887 326.303L89.4308 326.274C89.3152 326.245 89.2284 326.187 89.1127 326.158L89.026 326.129C88.9103 326.1 88.8235 326.071 88.7078 326.042L88.6211 326.014C88.5054 325.985 88.3897 325.956 88.2741 325.927L88.1584 325.898C88.0427 325.869 87.9559 325.869 87.8403 325.84L87.7246 325.811C87.6089 325.811 87.5222 325.782 87.4065 325.782C87.3486 325.782 87.3197 325.782 87.2619 325.782C87.1462 325.782 87.0594 325.782 86.9438 325.782C86.7992 325.782 86.6257 325.782 86.4811 325.782C86.4232 325.782 86.3654 325.782 86.3365 325.782C86.2208 325.782 86.134 325.811 86.0184 325.811C85.9605 325.811 85.9027 325.811 85.8449 325.84C85.7292 325.84 85.6424 325.869 85.5267 325.898C85.4689 325.898 85.411 325.927 85.3532 325.927C85.2375 325.956 85.1508 325.956 85.0351 325.985C84.9773 325.985 84.9194 326.014 84.8616 326.014C84.7459 326.042 84.6592 326.071 84.5435 326.1H84.5145C84.4567 326.129 84.3989 326.129 84.341 326.158C84.2254 326.187 84.1386 326.216 84.0229 326.245H83.994C83.9362 326.274 83.8783 326.274 83.8205 326.303C83.7048 326.332 83.618 326.39 83.5024 326.418C83.4156 326.447 83.3578 326.476 83.2999 326.505C83.1843 326.534 83.0975 326.592 82.9818 326.621C82.8951 326.65 82.8372 326.679 82.7505 326.708C82.6637 326.737 82.5769 326.794 82.4613 326.823L82.3745 326.881C82.3167 326.91 82.2588 326.939 82.201 326.968C82.0853 327.026 81.9986 327.084 81.8829 327.113L81.8251 327.141C81.7672 327.17 81.7094 327.199 81.6516 327.228C81.5648 327.286 81.4491 327.344 81.3624 327.373L81.2756 327.431C81.2177 327.46 81.1599 327.488 81.1021 327.546C81.0153 327.604 80.9286 327.662 80.8418 327.691L80.7261 327.778C80.6683 327.807 80.6104 327.864 80.5237 327.893C80.4369 327.951 80.3502 328.009 80.2923 328.038L80.1477 328.154C80.0899 328.183 80.0321 328.24 79.9742 328.269C79.8875 328.327 79.8007 328.385 79.7139 328.443L79.5693 328.53C79.5115 328.587 79.4537 328.616 79.3669 328.674C79.2802 328.732 79.2223 328.79 79.1355 328.848L78.962 328.992C78.9042 329.05 78.8464 329.079 78.7885 329.137C78.7018 329.195 78.615 329.253 78.5572 329.339L78.3836 329.484C78.3258 329.542 78.268 329.571 78.2101 329.628C78.1234 329.715 78.0366 329.773 77.9209 329.86L77.7764 329.976C77.7185 330.033 77.6607 330.062 77.6028 330.12C77.5161 330.207 77.4293 330.294 77.3136 330.38L77.1401 330.525C77.0823 330.583 77.0244 330.612 76.9955 330.67C76.8798 330.756 76.7642 330.872 76.6774 330.988L76.5328 331.132C76.475 331.161 76.446 331.219 76.3882 331.248C76.1858 331.45 75.9833 331.653 75.7809 331.855C72.0792 335.673 69.1584 341.977 68.204 348.253C67.857 348.455 66.3532 349.38 64.994 350.19C63.9818 350.797 62.9986 351.376 62.854 351.492H62.6515L64.5313 353.66L68.233 351.463C68.2619 351.665 68.2908 351.867 68.3486 352.128L68.3776 352.33C68.4643 352.851 68.6089 353.371 68.7535 353.834L68.7824 353.921C69.8235 357.131 72.0503 358.982 75.0579 359.126C75.1447 359.126 75.2893 359.126 75.4339 359.126ZM90.9057 327.228L90.8479 327.315C90.9346 327.402 91.0503 327.488 91.1371 327.575C91.2528 327.691 91.3395 327.778 91.4552 327.864C94.752 331.219 94.7809 337.986 91.542 345.187C87.5511 354.441 80.061 359.184 75.029 358.953C72.0503 358.808 69.9392 357.073 68.927 353.892L68.8981 353.776C68.7535 353.313 68.6378 352.822 68.5511 352.301L68.5222 352.128C68.4643 351.81 68.4354 351.578 68.4065 351.318L68.3776 351.173L64.5602 353.458L62.9986 351.665C63.201 351.549 63.7215 351.231 65.0807 350.422C66.4978 349.583 68.0883 348.6 68.3197 348.484L68.3486 348.455V348.397C69.303 342.122 72.166 335.846 75.8677 332.058C76.0701 331.855 76.2725 331.653 76.475 331.45C76.5328 331.421 76.5617 331.364 76.6196 331.335L76.7642 331.19C76.8798 331.074 76.9955 330.988 77.0823 330.872C77.1401 330.814 77.198 330.785 77.2269 330.727L77.4004 330.583C77.4871 330.496 77.5739 330.409 77.6896 330.323C77.7474 330.265 77.8052 330.236 77.8631 330.178L78.0077 330.062C78.0944 329.976 78.1812 329.918 78.2969 329.831C78.3547 329.773 78.4126 329.744 78.4704 329.686L78.6439 329.542C78.7307 329.484 78.8174 329.426 78.8753 329.339C78.9331 329.281 78.991 329.253 79.0488 329.195L79.2223 329.05C79.3091 328.992 79.3669 328.934 79.4537 328.877C79.5115 328.819 79.5693 328.79 79.6561 328.732L79.8007 328.645C79.8875 328.587 79.9742 328.53 80.061 328.472C80.1188 328.443 80.1767 328.385 80.2345 328.356L80.3791 328.24C80.4658 328.183 80.5526 328.125 80.6104 328.096C80.6683 328.067 80.7261 328.009 80.8129 327.98L80.9286 327.893C81.0153 327.835 81.1021 327.778 81.1888 327.749C81.2467 327.72 81.3045 327.691 81.3624 327.633L81.4491 327.575C81.5359 327.517 81.6226 327.46 81.7383 327.431C81.7961 327.402 81.854 327.373 81.9118 327.344L81.9697 327.315C82.0853 327.257 82.1721 327.199 82.2878 327.17C82.3456 327.141 82.4034 327.113 82.4613 327.084L82.548 327.026C82.6348 326.997 82.7216 326.939 82.8372 326.91C82.8951 326.881 82.9818 326.852 83.0397 326.823C83.1553 326.765 83.271 326.737 83.3578 326.679C83.4156 326.65 83.4735 326.621 83.5602 326.621C83.6759 326.563 83.7916 326.534 83.8783 326.505C83.9362 326.476 83.994 326.476 84.0518 326.447H84.0807C84.1964 326.418 84.2832 326.39 84.3989 326.361C84.4567 326.332 84.5146 326.332 84.5724 326.303H84.6013C84.717 326.274 84.8037 326.245 84.9194 326.216C84.9773 326.216 85.0351 326.187 85.0929 326.187C85.2086 326.158 85.2954 326.158 85.4111 326.129C85.4689 326.129 85.5267 326.1 85.5846 326.1C85.7003 326.071 85.787 326.071 85.9027 326.071C85.9605 326.071 86.0184 326.071 86.0762 326.042C86.1919 326.042 86.2786 326.014 86.3943 326.014C86.4521 326.014 86.4811 326.014 86.5389 326.014C86.6835 326.014 86.8281 326.014 87.0016 326.014C87.1173 326.014 87.2041 326.014 87.3197 326.014C87.3487 326.014 87.4065 326.014 87.4354 326.014C87.5511 326.014 87.6379 326.042 87.7535 326.042L87.8692 326.071C87.9849 326.1 88.0716 326.1 88.1873 326.129L88.303 326.158C88.4187 326.187 88.5054 326.216 88.6211 326.245L88.7078 326.274C88.8235 326.303 88.9103 326.332 89.026 326.361L89.1127 326.39C89.2284 326.418 89.3152 326.476 89.4308 326.505L89.4887 326.534C89.6044 326.592 89.6911 326.621 89.8068 326.679L89.8646 326.708C89.9803 326.765 90.0671 326.823 90.1828 326.881L90.2406 326.91C90.3563 326.968 90.443 327.026 90.5587 327.113L90.6455 327.055L90.5876 327.141C90.7033 327.199 90.79 327.286 90.8768 327.373L90.9057 327.228ZM75.376 357.536C79.5404 357.536 85.064 352.301 87.8403 348.629C91.8601 343.336 93.6242 335.615 91.8312 331.046C91.1082 329.166 89.7779 327.98 88.0427 327.662C87.927 327.633 87.7824 327.633 87.6668 327.604H87.5511C87.4065 327.604 87.2619 327.575 87.1173 327.575H87.0595C86.9149 327.575 86.7413 327.575 86.5389 327.604H86.4232C86.2786 327.604 86.163 327.633 86.0184 327.662C85.9605 327.662 85.9027 327.662 85.8738 327.691C85.7003 327.72 85.5267 327.749 85.3532 327.778H85.2954C85.1219 327.807 84.9194 327.864 84.717 327.922L84.5435 327.98C84.3989 328.038 84.2543 328.067 84.0807 328.125L83.9072 328.183C83.7048 328.269 83.5024 328.327 83.271 328.414C79.2802 330.294 75.5496 334.082 72.9757 338.796C70.4019 343.539 69.4765 348.426 70.373 352.243C70.4308 352.446 70.4887 352.648 70.5465 352.851L70.5754 352.995C70.6333 353.169 70.6622 353.313 70.72 353.458L70.7489 353.545C70.8646 353.863 70.9803 354.181 71.1249 354.441L71.1827 354.586C72.0503 356.35 73.2938 357.333 74.8844 357.478C75.0579 357.536 75.2025 357.536 75.376 357.536ZM87.6668 348.513C84.8037 352.272 79.0488 357.738 74.9133 357.333C73.4095 357.189 72.2238 356.263 71.4141 354.615L71.3852 354.528C71.2406 354.21 71.096 353.863 70.9514 353.516L70.9224 353.458C70.8646 353.285 70.8068 353.14 70.7778 352.966L70.7489 352.822C70.6911 352.619 70.6333 352.417 70.6043 352.215C69.7078 348.455 70.6333 343.597 73.1782 338.912C75.7231 334.227 79.4248 330.467 83.3867 328.616C83.5891 328.53 83.7916 328.443 83.994 328.385L84.1675 328.327C84.341 328.269 84.4856 328.211 84.6302 328.183L84.8037 328.125C85.0062 328.067 85.2086 328.009 85.3821 327.98H85.4111C85.5846 327.951 85.7581 327.922 85.9027 327.893C85.9605 327.893 85.9894 327.893 86.0473 327.864C86.1919 327.835 86.3076 327.836 86.4522 327.807H86.5678C86.7414 327.807 86.9149 327.778 87.0595 327.778H87.1173C87.2619 327.778 87.4065 327.778 87.5511 327.807H87.6668C87.7824 327.807 87.8981 327.835 88.0427 327.864C89.72 328.183 90.9925 329.281 91.6866 331.103C93.3639 335.557 91.5998 343.365 87.6668 348.513Z" fill="#31475E"/>
<path d="M49.2719 362.969C49.2719 361.321 48.0862 359.354 46.6692 358.545C45.2521 357.735 44.0954 358.4 44.1243 360.048C44.1243 361.697 45.31 363.663 46.727 364.473C48.1441 365.283 49.3008 364.589 49.2719 362.969Z" fill="#31475E"/>
<path d="M64.8595 352.124C64.5124 351.083 63.8473 350.129 63.0086 349.435C62.864 349.319 62.6905 349.203 62.5459 349.116C61.8518 348.712 61.1867 348.683 60.7529 348.943L44.9051 358.342C45.3678 358.081 46.004 358.11 46.727 358.515C47.7392 359.094 48.4911 360.106 48.9249 361.147C49.1273 361.667 49.3008 362.246 49.3297 362.795C49.3587 363.316 49.2719 363.952 48.896 364.357C48.8092 364.473 48.6935 364.559 48.5778 364.617C48.5778 364.617 64.4546 355.189 64.4835 355.189C65.4089 354.582 65.1776 353.049 64.8595 352.124Z" fill="white"/>
<path d="M48.5756 364.733C48.5756 364.704 48.5756 364.733 48.5756 364.733C53.3762 361.899 64.4523 355.305 64.4812 355.305C65.6669 354.582 65.1464 352.673 64.9729 352.124C64.6258 351.083 63.9318 350.071 63.0931 349.405C62.9196 349.261 62.7461 349.145 62.6015 349.058C61.8785 348.653 61.2134 348.596 60.6928 348.885L44.845 358.284L44.9318 358.457C45.3945 358.197 46.0018 358.255 46.638 358.631C47.5345 359.122 48.3153 360.077 48.778 361.233C49.0094 361.783 49.154 362.332 49.154 362.853C49.1829 363.229 49.154 363.894 48.7491 364.328C48.6624 364.415 48.5756 364.501 48.4599 364.559L48.5756 364.733ZM61.4158 348.885C61.7339 348.885 62.1099 349.001 62.4858 349.203C62.6304 349.29 62.775 349.376 62.9485 349.521C63.7872 350.186 64.4523 351.141 64.7704 352.153C64.944 352.673 65.4067 354.466 64.3656 355.103C64.3077 355.131 52.0459 362.419 49.0962 364.154C49.3564 363.692 49.3853 363.113 49.3564 362.795C49.3275 362.246 49.1829 361.696 48.9516 361.118C48.4599 359.932 47.6502 358.949 46.7248 358.428C46.3199 358.197 45.915 358.081 45.5391 358.081H45.5102L60.7506 349.029C60.9531 348.943 61.1844 348.885 61.4158 348.885Z" fill="#31475E"/>
<path d="M325.176 216.067L211.196 260.185L196 233.054L196.6 196.468V191.88L203.326 186.509L214.732 178.376L293.206 132.811L297.256 135.848L297.762 142.43V156.606V183.438V199.133L325.176 216.067Z" fill="white"/>
<path d="M292.767 132.811L201.381 185.863C199.844 186.741 198.416 188.389 197.482 189.762C196.988 190.641 196.494 192.014 196.384 193.991V253.469C196.384 259.29 198.965 260.773 202.315 258.851L294.031 205.799C296.667 204.261 298.314 200.526 298.314 197.506L297.93 136.93C297.82 136.545 297.6 136.216 297.381 135.831C296.063 133.689 293.701 133.03 292.767 132.811Z" stroke="#31475E" stroke-width="0.7" stroke-miterlimit="10"/>
<path d="M359.988 240.726V238.53C360.043 237.541 359.384 236.552 358.121 235.839L305.069 205.139C304.739 204.919 304.41 204.754 304.135 204.589C303.586 204.37 303.037 204.15 302.597 204.04C300.51 203.546 298.698 204.04 297.6 204.479L292.327 207.225L204.786 257.751C203.523 258.465 202.864 259.454 202.809 260.442V262.694C202.809 263.683 203.413 264.671 204.731 265.385L256.63 295.316C259.87 297.184 265.087 297.129 268.328 295.261L358.066 243.472C359.329 242.758 359.988 241.77 360.043 240.836V240.726C359.988 240.781 359.988 240.781 359.988 240.726Z" stroke="#31475E" stroke-width="0.7" stroke-miterlimit="10"/>
<path d="M292.273 135.446L203.194 187.125C201.711 188.004 200.338 189.542 199.404 190.915C198.91 191.793 198.471 193.111 198.306 195.034V253.029C198.306 258.685 200.832 260.168 204.072 258.301L293.536 206.567C296.117 205.084 297.71 201.459 297.71 198.494V138.686C297.71 135.007 295.513 133.579 292.273 135.446Z" stroke="#31475E" stroke-width="0.7" stroke-miterlimit="10"/>
<path d="M201.219 199.416V195.242C201.219 194.693 201.603 194.034 202.098 193.759L296.285 139.389C296.944 139.004 297.712 139.444 297.712 140.212V143.727L297.383 143.892L201.219 199.416ZM296.559 140.487L202.647 194.693C202.482 194.802 202.372 195.022 202.372 195.187V197.439L296.559 143.068V140.487Z" fill="#31475E"/>
<path d="M203.756 195.369C203.756 195.04 204.03 194.6 204.305 194.435C204.634 194.271 204.854 194.381 204.854 194.765C204.854 195.094 204.579 195.534 204.305 195.699C204.03 195.863 203.756 195.754 203.756 195.369Z" fill="#31475E"/>
<path d="M205.727 194.216C205.727 193.886 206.002 193.447 206.276 193.282C206.606 193.117 206.825 193.227 206.825 193.612C206.825 193.941 206.606 194.381 206.276 194.545C206.002 194.71 205.727 194.6 205.727 194.216Z" fill="#31475E"/>
<path d="M207.707 193.118C207.707 192.789 207.927 192.349 208.256 192.184C208.586 192.02 208.806 192.13 208.806 192.514C208.806 192.844 208.531 193.283 208.256 193.448C207.927 193.612 207.707 193.448 207.707 193.118Z" fill="#31475E"/>
<path d="M300.335 204.223C300.829 204.223 301.323 204.278 301.763 204.387C302.257 204.552 302.751 204.717 303.136 204.882C303.41 204.992 303.685 205.156 303.959 205.321L304.563 205.705H304.618L356.957 236.021C357.78 236.515 358.275 237.119 358.275 237.669C358.275 238.273 357.78 238.932 356.847 239.426L267.273 291.105C265.845 291.929 263.923 292.368 261.891 292.368C259.914 292.368 258.047 291.929 256.729 291.16L204.94 261.284C204.116 260.79 203.621 260.186 203.621 259.581C203.621 258.977 204.116 258.318 205.049 257.824L292.371 207.408L297.534 204.717C298.193 204.552 299.181 204.223 300.335 204.223ZM300.335 203.069C299.017 203.069 297.863 203.399 297.094 203.728L291.822 206.474L204.5 256.89C201.919 258.373 201.864 260.845 204.445 262.327L256.179 292.204C257.772 293.137 259.859 293.577 261.946 293.577C264.088 293.577 266.23 293.082 267.877 292.149L357.451 240.469C360.032 238.987 360.142 236.57 357.561 235.087L304.618 204.442C304.289 204.223 303.959 204.058 303.685 203.893C303.136 203.673 302.641 203.454 302.147 203.344C301.488 203.124 300.884 203.069 300.335 203.069Z" fill="#31475E"/>
<path d="M291.997 210.918C291.558 210.699 291.558 210.259 291.997 210.04C292.437 209.82 293.096 209.82 293.535 210.04C293.975 210.259 293.975 210.699 293.535 210.918C293.096 211.138 292.437 211.138 291.997 210.918Z" fill="#31475E"/>
<path d="M294.744 209.324C294.305 209.104 294.305 208.665 294.744 208.445C295.183 208.225 295.842 208.225 296.282 208.445C296.721 208.665 296.721 209.104 296.282 209.324C295.842 209.598 295.129 209.598 294.744 209.324Z" fill="#31475E"/>
<path d="M297.446 207.785C297.006 207.565 297.006 207.126 297.446 206.906C297.885 206.686 298.544 206.686 298.983 206.906C299.423 207.126 299.423 207.565 298.983 207.785C298.599 208.004 297.885 208.004 297.446 207.785Z" fill="#31475E"/>
<path d="M224.328 259.414C224.657 259.579 224.657 259.908 224.328 260.073L219.714 262.764C219.385 262.929 218.891 262.929 218.561 262.764L214.497 260.402C214.168 260.238 214.168 259.908 214.497 259.743L219.11 257.052C219.44 256.888 219.934 256.888 220.264 257.052L224.328 259.414ZM227.843 252.714C227.513 252.549 227.019 252.549 226.689 252.714L222.076 255.405C221.746 255.569 221.746 255.899 222.076 256.064L226.14 258.425C226.47 258.59 226.964 258.59 227.293 258.425L231.907 255.734C232.236 255.569 232.236 255.24 231.907 255.075L227.843 252.714ZM235.421 248.32C235.092 248.155 234.598 248.155 234.268 248.32L229.655 251.011C229.325 251.176 229.325 251.505 229.655 251.67L233.719 254.032C234.048 254.196 234.543 254.196 234.872 254.032L239.485 251.341C239.815 251.176 239.815 250.846 239.485 250.682L235.421 248.32ZM243 243.927C242.671 243.762 242.177 243.762 241.847 243.927L237.234 246.618C236.904 246.782 236.904 247.112 237.234 247.277L241.298 249.638C241.627 249.803 242.122 249.803 242.451 249.638L247.064 246.947C247.394 246.782 247.394 246.453 247.064 246.288L243 243.927ZM250.744 239.478C250.414 239.313 249.92 239.313 249.591 239.478L244.977 242.169C244.648 242.334 244.648 242.663 244.977 242.828L249.041 245.19C249.371 245.354 249.865 245.354 250.195 245.19L254.808 242.499C255.138 242.334 255.138 242.004 254.808 241.84L250.744 239.478ZM258.323 235.085C257.993 234.92 257.499 234.92 257.17 235.085L252.556 237.776C252.227 237.94 252.227 238.27 252.556 238.435L256.62 240.796C256.95 240.961 257.444 240.961 257.774 240.796L262.387 238.105C262.716 237.94 262.716 237.611 262.387 237.446L258.323 235.085ZM265.902 230.746C265.572 230.581 265.078 230.581 264.748 230.746L260.08 233.437C259.751 233.602 259.751 233.931 260.08 234.096L264.144 236.457C264.474 236.622 264.968 236.622 265.298 236.457L269.911 233.766C270.24 233.602 270.24 233.272 269.911 233.107L265.902 230.746ZM273.481 226.352C273.151 226.188 272.657 226.188 272.327 226.352L267.714 229.043C267.385 229.208 267.385 229.538 267.714 229.702L271.778 232.064C272.108 232.229 272.602 232.229 272.931 232.064L277.545 229.373C277.874 229.208 277.874 228.879 277.545 228.714L273.481 226.352ZM281.06 221.959C280.73 221.794 280.236 221.794 279.906 221.959L275.293 224.65C274.963 224.815 274.963 225.144 275.293 225.309L279.357 227.67C279.687 227.835 280.181 227.835 280.51 227.67L285.124 224.979C285.453 224.815 285.453 224.485 285.124 224.32L281.06 221.959ZM288.638 217.565C288.309 217.4 287.815 217.4 287.485 217.565L282.872 220.256C282.542 220.421 282.542 220.751 282.872 220.915L286.936 223.277C287.265 223.442 287.76 223.442 288.089 223.277L292.702 220.586C293.032 220.421 293.032 220.092 292.702 219.927L288.638 217.565ZM296.382 213.117C296.053 212.952 295.558 212.952 295.229 213.117L290.616 215.808C290.286 215.973 290.286 216.302 290.616 216.467L294.68 218.828C295.009 218.993 295.503 218.993 295.833 218.828L300.446 216.137C300.776 215.973 300.776 215.643 300.446 215.478L296.382 213.117ZM303.961 208.723C303.631 208.558 303.137 208.558 302.808 208.723L298.194 211.414C297.865 211.579 297.865 211.908 298.194 212.073L302.258 214.435C302.588 214.6 303.082 214.6 303.412 214.435L308.025 211.744C308.354 211.579 308.354 211.249 308.025 211.085L303.961 208.723ZM227.348 261.171C227.019 261.006 226.524 261.006 226.195 261.171L221.582 263.862C221.252 264.027 221.252 264.357 221.582 264.521L225.646 266.883C225.975 267.048 226.47 267.048 226.799 266.883L231.412 264.192C231.742 264.027 231.742 263.698 231.412 263.533L227.348 261.171ZM234.927 256.778C234.598 256.613 234.103 256.613 233.774 256.778L229.161 259.469C228.831 259.634 228.831 259.963 229.161 260.128L233.225 262.489C233.554 262.654 234.048 262.654 234.378 262.489L238.991 259.798C239.321 259.634 239.321 259.304 238.991 259.139L234.927 256.778ZM242.506 252.384C242.177 252.219 241.682 252.219 241.353 252.384L236.74 255.075C236.41 255.24 236.41 255.569 236.74 255.734L240.804 258.096C241.133 258.261 241.627 258.261 241.957 258.096L246.57 255.405C246.9 255.24 246.9 254.91 246.57 254.746L242.506 252.384ZM250.085 248.045C249.755 247.881 249.261 247.881 248.932 248.045L244.318 250.737C243.989 250.901 243.989 251.231 244.318 251.396L248.382 253.757C248.712 253.922 249.206 253.922 249.536 253.757L254.149 251.066C254.478 250.901 254.478 250.572 254.149 250.407L250.085 248.045ZM257.829 243.542C257.499 243.377 257.005 243.377 256.675 243.542L252.062 246.233C251.733 246.398 251.733 246.727 252.062 246.892L256.126 249.254C256.456 249.418 256.95 249.418 257.279 249.254L261.893 246.563C262.222 246.398 262.222 246.068 261.893 245.904L257.829 243.542ZM265.407 239.203C265.078 239.039 264.584 239.039 264.254 239.203L259.641 241.895C259.311 242.059 259.311 242.389 259.641 242.554L263.705 244.915C264.034 245.08 264.529 245.08 264.858 244.915L269.472 242.224C269.801 242.059 269.801 241.73 269.472 241.565L265.407 239.203ZM272.986 234.81C272.657 234.645 272.163 234.645 271.833 234.81L267.22 237.501C266.89 237.666 266.89 237.995 267.22 238.16L271.284 240.522C271.613 240.686 272.108 240.686 272.437 240.522L277.05 237.83C277.38 237.666 277.38 237.336 277.05 237.171L272.986 234.81ZM280.565 230.416C280.236 230.252 279.741 230.252 279.412 230.416L274.799 233.107C274.469 233.272 274.469 233.602 274.799 233.766L278.863 236.128C279.192 236.293 279.687 236.293 280.016 236.128L284.629 233.437C284.959 233.272 284.959 232.943 284.629 232.778L280.565 230.416ZM288.144 226.078C287.815 225.913 287.32 225.913 286.991 226.078L282.378 228.769C282.048 228.934 282.048 229.263 282.378 229.428L286.442 231.789C286.771 231.954 287.265 231.954 287.595 231.789L292.208 229.098C292.538 228.934 292.538 228.604 292.208 228.439L288.144 226.078ZM295.723 221.684C295.393 221.519 294.899 221.519 294.57 221.684L289.956 224.375C289.627 224.54 289.627 224.87 289.956 225.034L294.021 227.396C294.35 227.561 294.844 227.561 295.174 227.396L299.787 224.705C300.117 224.54 300.117 224.21 299.787 224.046L295.723 221.684ZM303.467 217.236C303.137 217.071 302.643 217.071 302.313 217.236L297.7 219.927C297.371 220.092 297.371 220.421 297.7 220.586L301.764 222.947C302.094 223.112 302.588 223.112 302.917 222.947L307.531 220.256C307.86 220.092 307.86 219.762 307.531 219.597L303.467 217.236ZM311.046 212.842C310.716 212.677 310.222 212.677 309.892 212.842L305.279 215.533C304.949 215.698 304.949 216.027 305.279 216.192L309.343 218.554C309.673 218.719 310.167 218.719 310.496 218.554L315.11 215.863C315.439 215.698 315.439 215.368 315.11 215.204L311.046 212.842ZM234.213 265.125C233.884 264.961 233.389 264.961 233.06 265.125L228.447 267.816C228.117 267.981 228.117 268.311 228.447 268.476L232.511 270.837C232.84 271.002 233.335 271.002 233.664 270.837L238.277 268.146C238.607 267.981 238.607 267.652 238.277 267.487L234.213 265.125ZM241.792 260.787C241.463 260.622 240.968 260.622 240.639 260.787L236.026 263.478C235.696 263.643 235.696 263.972 236.026 264.137L240.09 266.498C240.419 266.663 240.913 266.663 241.243 266.498L245.856 263.807C246.186 263.643 246.186 263.313 245.856 263.148L241.792 260.787ZM249.371 256.393C249.041 256.228 248.547 256.228 248.218 256.393L243.604 259.084C243.275 259.249 243.275 259.579 243.604 259.743L247.668 262.105C247.998 262.27 248.492 262.27 248.822 262.105L253.435 259.414C253.765 259.249 253.765 258.92 253.435 258.755L249.371 256.393ZM256.95 252C256.62 251.835 256.126 251.835 255.797 252L251.183 254.691C250.854 254.856 250.854 255.185 251.183 255.35L255.247 257.711C255.577 257.876 256.071 257.876 256.401 257.711L261.014 255.02C261.343 254.856 261.343 254.526 261.014 254.361L256.95 252ZM264.694 247.551C264.364 247.386 263.87 247.386 263.54 247.551L258.927 250.242C258.597 250.407 258.597 250.737 258.927 250.901L262.991 253.263C263.321 253.428 263.815 253.428 264.144 253.263L268.758 250.572C269.087 250.407 269.087 250.078 268.758 249.913L264.694 247.551ZM272.272 243.158C271.943 242.993 271.449 242.993 271.119 243.158L266.506 245.849C266.176 246.013 266.176 246.343 266.506 246.508L270.57 248.869C270.899 249.034 271.394 249.034 271.723 248.869L276.336 246.178C276.666 246.013 276.666 245.684 276.336 245.519L272.272 243.158ZM279.851 238.764C279.522 238.599 279.027 238.599 278.698 238.764L274.085 241.455C273.755 241.62 273.755 241.949 274.085 242.114L278.149 244.476C278.478 244.64 278.973 244.64 279.302 244.476L283.915 241.785C284.245 241.62 284.245 241.29 283.915 241.126L279.851 238.764ZM287.485 234.425C287.156 234.261 286.606 234.261 286.332 234.425L281.719 237.117C281.389 237.281 281.389 237.611 281.719 237.776L285.783 240.137C286.112 240.302 286.606 240.302 286.936 240.137L291.549 237.446C291.879 237.281 291.879 236.952 291.549 236.787L287.485 234.425ZM295.064 230.032C294.734 229.867 294.24 229.867 293.911 230.032L289.297 232.723C288.968 232.888 288.968 233.217 289.297 233.382L293.361 235.744C293.691 235.908 294.185 235.908 294.515 235.744L299.128 233.052C299.458 232.888 299.458 232.558 299.128 232.393L295.064 230.032ZM302.643 225.638C302.313 225.474 301.819 225.474 301.49 225.638L296.876 228.329C296.547 228.494 296.547 228.824 296.876 228.988L300.94 231.35C301.27 231.515 301.764 231.515 302.094 231.35L306.707 228.659C307.036 228.494 307.036 228.165 306.707 228L302.643 225.638ZM310.387 221.19C310.057 221.025 309.563 221.025 309.233 221.19L304.62 223.881C304.29 224.046 304.29 224.375 304.62 224.54L308.684 226.902C309.014 227.066 309.508 227.066 309.837 226.902L314.451 224.21C314.78 224.046 314.78 223.716 314.451 223.551L310.387 221.19ZM317.965 216.796C317.636 216.632 317.142 216.632 316.812 216.796L312.199 219.487C311.869 219.652 311.869 219.982 312.199 220.146L316.263 222.508C316.592 222.673 317.087 222.673 317.416 222.508L322.029 219.817C322.359 219.652 322.359 219.323 322.029 219.158L317.965 216.796ZM241.298 269.244C240.968 269.08 240.474 269.08 240.145 269.244L235.531 271.935C235.202 272.1 235.202 272.43 235.531 272.594L239.595 274.956C239.925 275.121 240.419 275.121 240.749 274.956L245.362 272.265C245.691 272.1 245.691 271.771 245.362 271.606L241.298 269.244ZM248.877 264.851C248.547 264.686 248.053 264.686 247.723 264.851L243.11 267.542C242.781 267.707 242.781 268.036 243.11 268.201L247.174 270.562C247.504 270.727 247.998 270.727 248.328 270.562L252.941 267.871C253.27 267.707 253.27 267.377 252.941 267.212L248.877 264.851ZM256.456 260.457C256.126 260.293 255.632 260.293 255.302 260.457L250.689 263.148C250.36 263.313 250.36 263.643 250.689 263.807L254.753 266.169C255.083 266.334 255.577 266.334 255.906 266.169L260.52 263.478C260.849 263.313 260.849 262.984 260.52 262.819L256.456 260.457ZM264.034 256.119C263.705 255.954 263.211 255.954 262.881 256.119L258.268 258.81C257.938 258.974 257.938 259.304 258.268 259.469L262.332 261.83C262.662 261.995 263.156 261.995 263.485 261.83L268.099 259.139C268.428 258.974 268.428 258.645 268.099 258.48L264.034 256.119ZM302.094 234.096C301.764 233.931 301.27 233.931 300.94 234.096L296.327 236.787C295.998 236.952 295.998 237.281 296.327 237.446L300.391 239.808C300.721 239.972 301.215 239.972 301.544 239.808L306.158 237.117C306.487 236.952 306.487 236.622 306.158 236.457L302.094 234.096ZM309.673 229.757C309.343 229.593 308.849 229.593 308.519 229.757L303.906 232.448C303.576 232.613 303.576 232.943 303.906 233.107L307.97 235.469C308.3 235.634 308.794 235.634 309.123 235.469L313.737 232.778C314.066 232.613 314.066 232.284 313.737 232.119L309.673 229.757ZM317.416 225.254C317.087 225.089 316.592 225.089 316.263 225.254L311.65 227.945C311.32 228.11 311.32 228.439 311.65 228.604L315.714 230.966C316.043 231.13 316.537 231.13 316.867 230.966L321.48 228.274C321.81 228.11 321.81 227.78 321.48 227.615L317.416 225.254ZM325.05 220.915C324.72 220.751 324.226 220.751 323.897 220.915L319.283 223.606C318.954 223.771 318.954 224.101 319.283 224.265L323.347 226.627C323.677 226.792 324.171 226.792 324.501 226.627L329.114 223.936C329.444 223.771 329.444 223.442 329.114 223.277L325.05 220.915ZM293.416 238.544L288.803 241.235L285.892 242.938L281.224 245.629L278.259 247.332L273.645 250.023L270.68 251.725L266.067 254.416C265.737 254.581 265.737 254.91 266.067 255.075L270.185 257.437C270.515 257.601 271.009 257.601 271.339 257.437L272.327 256.888L276.007 254.746L278.973 253.043L283.586 250.352L286.551 248.65L291.165 245.959L294.13 244.256L298.414 241.785L298.799 241.565C299.128 241.4 299.128 241.071 298.799 240.906L294.68 238.544C294.24 238.325 293.746 238.325 293.416 238.544Z" stroke="#31475E" stroke-width="0.7" stroke-miterlimit="10"/>
<path d="M287.108 210.306L222.138 247.816C221.149 248.365 220.381 247.981 220.381 246.882C220.381 245.784 221.149 244.521 222.138 243.917L287.108 206.407C288.096 205.857 288.865 206.187 288.865 207.34C288.865 208.439 288.096 209.757 287.108 210.306Z" fill="#31475E"/>
<path d="M294.135 268.627C292.157 269.78 288.862 269.78 286.885 268.627L276.835 262.805C274.858 261.652 274.858 259.785 276.835 258.631L299.187 245.725C301.164 244.572 304.459 244.572 306.436 245.725L316.487 251.547C318.464 252.7 318.464 254.567 316.487 255.721L294.135 268.627Z" fill="#FFCCB3"/>
<path d="M217.359 207.612C217.139 207.612 216.864 207.502 216.755 207.282C216.535 206.953 216.7 206.513 217.029 206.294L280.406 169.717C280.736 169.498 281.175 169.662 281.395 169.992C281.614 170.321 281.45 170.761 281.12 170.98L217.743 207.502C217.633 207.612 217.523 207.612 217.359 207.612Z" fill="#FF5C00"/>
<path d="M217.359 212.553C217.139 212.553 216.864 212.443 216.755 212.224C216.535 211.894 216.7 211.455 217.029 211.235L280.406 174.659C280.736 174.439 281.175 174.604 281.395 174.933C281.614 175.263 281.45 175.702 281.12 175.922L217.743 212.443C217.633 212.498 217.523 212.553 217.359 212.553Z" fill="#FF5C00"/>
<path d="M217.359 217.499C217.139 217.499 216.864 217.389 216.755 217.17C216.535 216.84 216.7 216.401 217.029 216.181L229.331 209.041C229.661 208.822 230.1 208.987 230.32 209.316C230.539 209.646 230.375 210.085 230.045 210.305L217.743 217.444C217.633 217.444 217.523 217.499 217.359 217.499Z" fill="#FF5C00"/>
<path d="M241.087 203.769C240.867 203.769 240.592 203.659 240.483 203.439C240.263 203.11 240.428 202.67 240.757 202.451L280.409 179.549C280.739 179.33 281.178 179.494 281.398 179.824C281.617 180.153 281.453 180.593 281.123 180.812L241.471 203.714C241.361 203.769 241.197 203.769 241.087 203.769Z" fill="#FF5C00"/>
<path d="M217.359 222.383C217.139 222.383 216.864 222.273 216.755 222.054C216.535 221.724 216.7 221.285 217.029 221.065L252.287 200.69C252.617 200.47 253.056 200.635 253.276 200.964C253.496 201.294 253.331 201.733 253.001 201.953L217.743 222.273C217.633 222.383 217.523 222.383 217.359 222.383Z" fill="#FF5C00"/>
<path d="M268.144 193.061C267.924 193.061 267.65 192.951 267.54 192.731C267.32 192.402 267.485 191.963 267.814 191.743L280.391 184.494C280.72 184.274 281.16 184.439 281.379 184.768C281.599 185.098 281.434 185.537 281.105 185.757L268.528 193.006C268.418 193.061 268.254 193.061 268.144 193.061Z" fill="#FF5C00"/>
<path d="M217.359 227.329C217.139 227.329 216.864 227.22 216.755 227C216.535 226.67 216.7 226.231 217.029 226.011L280.406 189.435C280.736 189.215 281.175 189.38 281.395 189.71C281.614 190.039 281.45 190.478 281.12 190.698L217.743 227.22C217.633 227.274 217.523 227.329 217.359 227.329Z" fill="#FF5C00"/>
<path d="M217.359 232.273C217.139 232.273 216.864 232.164 216.755 231.944C216.535 231.614 216.7 231.175 217.029 230.955L248.992 212.502C249.322 212.283 249.761 212.447 249.981 212.777C250.201 213.106 250.036 213.546 249.706 213.766L217.743 232.164C217.633 232.218 217.523 232.273 217.359 232.273Z" fill="#FF5C00"/>
<path d="M259.264 208.053C259.044 208.053 258.769 207.943 258.66 207.723C258.44 207.394 258.605 206.954 258.934 206.734L280.463 194.323C280.792 194.103 281.231 194.268 281.451 194.597C281.671 194.927 281.506 195.366 281.177 195.586L259.648 207.998C259.483 208.053 259.374 208.053 259.264 208.053Z" fill="#FF5C00"/>
<path d="M306.335 214.935C306.335 219.18 303.131 222.56 299.251 222.56C295.371 222.56 292.168 219.18 292.168 214.935C292.168 210.691 295.371 207.311 299.251 207.311C303.131 207.311 306.335 210.691 306.335 214.935Z" fill="white" stroke="#31475E"/>
<path d="M271.068 217.854C269.107 215.604 270.301 213.394 271.068 212.633C272.38 211.654 274.023 212.633 275.664 213.612C277.306 214.591 284.201 220.791 286.827 223.401C289.454 226.012 295.035 225.685 303.243 226.991C309.809 228.035 311.67 231.342 311.779 232.864C312.545 236.562 313.88 245.59 313.092 252.117C312.304 258.643 309.7 260.057 308.496 259.948V291.274C308.715 293.232 308.233 297.082 304.556 296.821C300.879 296.56 300.398 293.014 300.616 291.274L298.975 263.864L297.005 290.621C297.662 293.123 297.859 298.061 293.393 297.8C288.928 297.539 288.25 294.428 288.469 292.906C288.578 286.814 288.994 273.262 289.782 267.78C290.767 260.927 289.782 241.348 289.782 236.454C289.782 231.559 274.979 222.343 271.068 217.854Z" fill="white"/>
<path d="M308.496 239.717V259.948M308.496 259.948V291.274C308.715 293.232 308.233 297.082 304.556 296.821C300.879 296.56 300.398 293.014 300.616 291.274L298.975 263.864L297.005 290.621C297.662 293.123 297.859 298.061 293.393 297.8C288.928 297.539 288.25 294.428 288.469 292.906C288.578 286.814 288.994 273.262 289.782 267.78C290.767 260.927 289.782 241.348 289.782 236.454C289.782 231.559 274.979 222.343 271.068 217.854C269.107 215.604 270.301 213.394 271.068 212.633C272.38 211.654 274.023 212.633 275.664 213.612C277.306 214.591 284.201 220.791 286.827 223.401C289.454 226.012 295.035 225.685 303.243 226.991C309.809 228.035 311.67 231.342 311.779 232.864C312.545 236.562 313.88 245.59 313.092 252.117C312.304 258.643 309.7 260.057 308.496 259.948Z" stroke="#31475E"/>
</svg>
