<svg width="622" height="709" viewBox="0 0 622 709" fill="none" xmlns="http://www.w3.org/2000/svg">
<rect width="621.144" height="709" fill="#1669E2"/>
<path d="M111.368 174.356L311.482 124.369V584.63C159.817 518.986 114.879 413.682 111.368 369.236V174.356Z" fill="url(#paint0_linear_3842_9423)"/>
<path opacity="0.24" d="M509.775 174.356L311.481 124.369V584.63C461.767 518.986 506.297 413.682 509.775 369.236V174.356Z" fill="white"/>
<path d="M305.259 445.898L308.775 446.954C308.541 447.95 308.19 448.771 307.662 449.416C307.134 450.06 306.549 450.587 305.786 450.881C305.024 451.232 304.087 451.408 302.914 451.408C301.508 451.408 300.394 451.232 299.455 450.822C298.577 450.412 297.814 449.708 297.17 448.653C296.525 447.657 296.173 446.309 296.173 444.726C296.173 442.616 296.76 440.975 297.873 439.802C298.987 438.63 300.628 438.103 302.679 438.103C304.32 438.103 305.552 438.454 306.489 439.099C307.427 439.744 308.131 440.74 308.541 442.147L305.024 442.909C304.907 442.498 304.79 442.206 304.614 442.03C304.38 441.737 304.145 441.502 303.794 441.327C303.442 441.151 303.09 441.092 302.738 441.092C301.859 441.092 301.156 441.444 300.687 442.206C300.335 442.733 300.159 443.612 300.159 444.726C300.159 446.133 300.394 447.13 300.804 447.657C301.214 448.184 301.859 448.477 302.621 448.477C303.383 448.477 303.969 448.243 304.32 447.832C304.79 447.305 305.083 446.719 305.259 445.898Z" fill="#F7F8F9"/>
<path d="M310.184 444.723C310.184 442.613 310.771 440.971 311.943 439.8C313.115 438.627 314.756 438.041 316.866 438.041C319.035 438.041 320.677 438.627 321.85 439.741C323.021 440.913 323.607 442.496 323.607 444.606C323.607 446.13 323.373 447.361 322.846 448.299C322.318 449.237 321.614 449.999 320.618 450.527C319.68 451.054 318.45 451.347 317.042 451.347C315.577 451.347 314.405 451.112 313.409 450.644C312.47 450.175 311.709 449.471 311.064 448.416C310.419 447.361 310.184 446.247 310.184 444.723ZM314.171 444.723C314.171 446.013 314.405 446.951 314.874 447.537C315.343 448.123 315.988 448.416 316.866 448.416C317.746 448.416 318.391 448.123 318.859 447.596C319.328 447.009 319.564 446.013 319.564 444.606C319.564 443.375 319.328 442.496 318.801 441.968C318.332 441.382 317.629 441.148 316.809 441.148C315.988 441.148 315.343 441.441 314.874 442.027C314.405 442.496 314.171 443.434 314.171 444.723Z" fill="#F7F8F9"/>
<path d="M325.658 438.276H330.875L332.868 446.13L334.861 438.276H340.077V451.172H336.795V441.324L334.274 451.172H331.344L328.823 441.324V451.172H325.541V438.276H325.658Z" fill="#F7F8F9"/>
<path d="M342.652 438.276H349.276C350.741 438.276 351.795 438.628 352.5 439.331C353.202 440.035 353.554 440.972 353.554 442.262C353.554 443.551 353.144 444.607 352.382 445.31C351.62 446.072 350.389 446.424 348.807 446.424H346.638V451.23H342.652V438.276ZM346.638 443.786H347.634C348.396 443.786 348.924 443.668 349.276 443.375C349.569 443.082 349.745 442.79 349.745 442.38C349.745 441.969 349.627 441.617 349.334 441.324C349.041 441.031 348.572 440.914 347.81 440.914H346.696V443.786H346.638Z" fill="#F7F8F9"/>
<path d="M355.664 438.276H359.649V448.006H365.863V451.172H355.664V438.276Z" fill="#F7F8F9"/>
<path d="M367.868 438.276H371.853V451.172H367.868V438.276Z" fill="#F7F8F9"/>
<path d="M382.63 449.002H378.116L377.471 451.112H373.427L378.292 438.217H382.63L387.495 451.112H383.333L382.63 449.002ZM381.809 446.247L380.402 441.617L378.995 446.247H381.809Z" fill="#F7F8F9"/>
<path d="M388.729 438.276H392.421L397.287 445.427V438.276H401.037V451.172H397.287L392.48 444.079V451.172H388.729V438.276Z" fill="#F7F8F9"/>
<path d="M402.796 438.276H414.929V441.441H410.885V451.172H406.898V441.441H402.855V438.276H402.796Z" fill="#F7F8F9"/>
<path d="M387.614 347.834L399.162 344.2L395.41 335.876C392.655 339.335 389.9 343.789 387.614 347.834ZM383.687 309.792L361.061 259.383L195.414 268.761L241.31 393.965L329.644 366.122C324.016 358.033 321.965 348.42 328.471 343.731C335.74 338.456 346.701 344.552 353.676 353.168C360.417 341.914 379.35 315.713 383.687 309.792Z" fill="#F7F8F9"/>
<path d="M355.899 295.81C362.815 295.81 368.443 290.534 368.443 283.969C368.443 277.404 362.815 272.129 355.899 272.129C348.982 272.129 343.355 277.404 343.355 283.969C343.355 290.476 348.982 295.81 355.899 295.81ZM345.641 300.909H366.156V354.543H345.641V300.909Z" fill="#135ECB"/>
<path d="M335.499 316.562C335.675 316.621 335.793 316.562 335.793 316.386V302.787C335.793 302.611 335.675 302.436 335.499 302.318C335.499 302.318 332.803 300.56 324.597 300.091C324.187 299.857 316.977 299.798 315.042 300.091C285.149 302.494 284.035 324.124 284.035 325.062V330.336C284.035 330.981 284.035 353.08 315.042 355.014C318.091 355.248 324.011 355.014 324.597 355.014C331.748 355.014 336.672 352.845 336.672 352.845C336.847 352.786 336.965 352.61 336.965 352.435V339.715C336.965 339.539 336.847 339.481 336.731 339.598C336.731 339.598 334.503 341.356 324.773 342.353C322.018 342.646 320.67 342.529 319.674 342.353C305.84 340.008 305.195 329.926 305.195 329.926C305.195 329.75 305.137 329.458 305.137 329.341V325.471C305.137 325.295 305.137 325.002 305.195 324.886C305.195 324.886 306.133 314.041 319.674 312.869H324.773C330.693 313.631 335.499 316.562 335.499 316.562Z" fill="#135ECB"/>
<path d="M227.057 354.369C227.057 354.545 227.174 354.663 227.35 354.663H247.338C247.514 354.663 247.631 354.545 247.631 354.369V338.778C247.631 338.602 247.748 338.485 247.924 338.485C247.924 338.485 279.87 340.77 279.87 319.376C279.87 302.436 259.823 300.619 253.259 300.912C253.141 300.912 227.35 300.912 227.35 300.912C227.174 300.912 227.057 301.029 227.057 301.205V354.369ZM247.28 326.586V312.577H252.203C252.203 312.577 259.295 312.87 259.882 317.735C259.999 318.087 259.999 320.489 259.882 320.607C258.944 326.292 252.79 326.586 252.79 326.586H247.28Z" fill="#135ECB"/>
<path d="M356.49 380.422C358.132 380.422 359.421 380.422 361.531 379.485C368.8 375.674 393.36 315.71 419.268 297.246C419.443 297.129 419.619 296.953 419.737 296.778C419.913 296.543 419.912 296.309 419.912 296.309C419.912 296.309 419.912 295.078 416.103 295.078C393.067 294.433 369.093 342.791 356.49 361.899C356.315 362.134 355.494 361.899 355.494 361.899C355.494 361.899 347.054 351.935 339.727 348.124C339.551 348.066 338.731 347.773 337.851 347.832C337.265 347.832 333.865 348.535 332.282 350.177C330.407 352.17 330.466 353.283 330.466 355.686C330.466 355.863 330.583 356.683 330.817 357.093C332.634 360.258 340.782 371.513 347.523 377.726C348.519 378.488 350.102 380.422 356.49 380.422Z" fill="#F7F8F9"/>
<path d="M295.764 389.218H314.931C318.742 389.218 321.79 389.745 324.076 390.741C326.42 391.796 328.355 393.262 329.82 395.137C331.344 397.072 332.457 399.299 333.103 401.819C333.806 404.34 334.158 407.036 334.158 409.909C334.158 414.363 333.63 417.822 332.633 420.284C331.637 422.746 330.23 424.797 328.413 426.497C326.596 428.138 324.662 429.252 322.61 429.838C319.797 430.6 317.217 430.952 314.931 430.952H295.764V389.218ZM308.66 398.655V421.456H311.825C314.522 421.456 316.456 421.164 317.569 420.577C318.683 419.991 319.621 418.935 320.266 417.47C320.91 416.005 321.262 413.543 321.262 410.202C321.262 405.747 320.559 402.758 319.094 401.116C317.628 399.475 315.283 398.655 311.884 398.655H308.66Z" fill="#F7F8F9"/>
<path d="M337.732 417.176L350.041 416.414C350.334 418.407 350.862 419.931 351.683 420.986C353.031 422.686 354.907 423.507 357.369 423.507C359.186 423.507 360.651 423.097 361.648 422.217C362.644 421.338 363.171 420.342 363.171 419.228C363.171 418.173 362.702 417.176 361.765 416.298C360.827 415.418 358.6 414.656 355.141 413.894C349.455 412.604 345.469 410.905 343.007 408.795C340.546 406.684 339.374 403.987 339.374 400.705C339.374 398.537 340.019 396.544 341.249 394.609C342.48 392.675 344.356 391.209 346.877 390.096C349.397 388.982 352.796 388.455 357.134 388.455C362.468 388.455 366.571 389.451 369.326 391.444C372.139 393.437 373.781 396.602 374.308 400.94L362.117 401.643C361.765 399.768 361.12 398.419 360.065 397.54C359.01 396.661 357.603 396.251 355.786 396.251C354.262 396.251 353.148 396.544 352.386 397.188C351.624 397.833 351.273 398.595 351.273 399.533C351.273 400.178 351.565 400.823 352.21 401.35C352.796 401.877 354.262 402.405 356.548 402.874C362.175 404.105 366.22 405.336 368.681 406.567C371.143 407.798 372.902 409.38 374.015 411.197C375.129 413.014 375.657 415.125 375.657 417.411C375.657 420.107 374.895 422.569 373.429 424.797C371.964 427.082 369.853 428.782 367.216 429.955C364.579 431.127 361.179 431.713 357.134 431.713C350.041 431.713 345.118 430.364 342.363 427.61C339.667 424.855 338.142 421.397 337.732 417.176Z" fill="#F7F8F9"/>
<path d="M378.938 417.176L391.247 416.414C391.541 418.408 392.068 419.931 392.888 420.986C394.236 422.686 396.112 423.507 398.574 423.507C400.391 423.507 401.857 423.097 402.853 422.217C403.85 421.338 404.377 420.342 404.377 419.229C404.377 418.173 403.908 417.176 402.97 416.298C402.033 415.418 399.805 414.656 396.347 413.894C390.661 412.604 386.675 410.905 384.214 408.795C381.81 406.684 380.579 403.988 380.579 400.705C380.579 398.537 381.224 396.544 382.455 394.609C383.686 392.675 385.561 391.209 388.082 390.096C390.602 388.982 394.002 388.455 398.34 388.455C403.674 388.455 407.777 389.452 410.532 391.444C413.345 393.437 414.986 396.602 415.514 400.94L403.322 401.643C402.97 399.768 402.326 398.419 401.271 397.54C400.215 396.661 398.809 396.251 396.991 396.251C395.467 396.251 394.354 396.544 393.592 397.188C392.83 397.833 392.479 398.595 392.479 399.533C392.479 400.178 392.772 400.823 393.416 401.35C394.002 401.878 395.467 402.405 397.753 402.874C403.381 404.105 407.425 405.336 409.887 406.567C412.349 407.798 414.108 409.38 415.221 411.198C416.335 413.015 416.863 415.125 416.863 417.411C416.863 420.107 416.1 422.569 414.635 424.797C413.169 427.082 411.06 428.782 408.422 429.955C405.784 431.127 402.384 431.713 398.34 431.713C391.247 431.713 386.324 430.365 383.569 427.61C380.814 424.855 379.29 421.397 378.938 417.176Z" fill="#F7F8F9"/>
<defs>
<linearGradient id="paint0_linear_3842_9423" x1="310.814" y1="124.986" x2="111.971" y2="568.78" gradientUnits="userSpaceOnUse">
<stop stop-color="white" stop-opacity="0.02"/>
<stop offset="1" stop-color="white" stop-opacity="0.16"/>
</linearGradient>
</defs>
</svg>
